<?xml version="1.0" encoding="UTF-8" standalone="no"?>
<!DOCTYPE svg PUBLIC "-//W3C//DTD SVG 1.1//EN"
 "http://www.w3.org/Graphics/SVG/1.1/DTD/svg11.dtd">
<!-- Generated by graphviz version 2.43.0 (0)
 -->
<!-- Title: A Pages: 1 -->
<svg width="580pt" height="241pt"
 viewBox="0.00 0.00 580.00 241.00" xmlns="http://www.w3.org/2000/svg" xmlns:xlink="http://www.w3.org/1999/xlink">
<g id="graph0" class="graph" transform="scale(1 1) rotate(0) translate(4 237)">
<title>A</title>
<polygon fill="white" stroke="transparent" points="-4,4 -4,-237 576,-237 576,4 -4,4"/>
<g id="clust1" class="cluster">
<title>cluster</title>
<polygon fill="none" stroke="black" points="8,-8 8,-156 409,-156 409,-8 8,-8"/>
<text text-anchor="middle" x="208.5" y="-140.8" font-family="Times,serif" font-size="14.00">Cluster</text>
</g>
<!-- dag -->
<g id="node1" class="node">
<title>dag</title>
<path fill="none" stroke="black" d="M369.5,-52C369.5,-52 310.5,-52 310.5,-52 304.5,-52 298.5,-46 298.5,-40 298.5,-40 298.5,-28 298.5,-28 298.5,-22 304.5,-16 310.5,-16 310.5,-16 369.5,-16 369.5,-16 375.5,-16 381.5,-22 381.5,-28 381.5,-28 381.5,-40 381.5,-40 381.5,-46 375.5,-52 369.5,-52"/>
<text text-anchor="middle" x="340" y="-30.3" font-family="Times,serif" font-size="14.00">DAG files</text>
</g>
<!-- database -->
<g id="node2" class="node">
<title>database</title>
<path fill="none" stroke="black" d="M251.5,-52C251.5,-52 192.5,-52 192.5,-52 186.5,-52 180.5,-46 180.5,-40 180.5,-40 180.5,-28 180.5,-28 180.5,-22 186.5,-16 192.5,-16 192.5,-16 251.5,-16 251.5,-16 257.5,-16 263.5,-22 263.5,-28 263.5,-28 263.5,-40 263.5,-40 263.5,-46 257.5,-52 251.5,-52"/>
<text text-anchor="middle" x="222" y="-30.3" font-family="Times,serif" font-size="14.00">Database</text>
</g>
<!-- workers -->
<g id="node3" class="node">
<title>workers</title>
<path fill="none" stroke="black" d="M282,-125C282,-125 162,-125 162,-125 156,-125 150,-119 150,-113 150,-113 150,-101 150,-101 150,-95 156,-89 162,-89 162,-89 282,-89 282,-89 288,-89 294,-95 294,-101 294,-101 294,-113 294,-113 294,-119 288,-125 282,-125"/>
<text text-anchor="middle" x="222" y="-103.3" font-family="Times,serif" font-size="14.00">(Central) Workers</text>
</g>
<!-- workers&#45;&gt;dag -->
<g id="edge3" class="edge">
<title>workers&#45;&gt;dag</title>
<path fill="none" stroke="black" d="M250.26,-88.99C266.06,-79.49 285.93,-67.54 302.95,-57.29"/>
<polygon fill="black" stroke="black" points="304.79,-60.27 311.56,-52.11 301.18,-54.27 304.79,-60.27"/>
</g>
<!-- workers&#45;&gt;database -->
<g id="edge4" class="edge">
<title>workers&#45;&gt;database</title>
<path fill="none" stroke="black" d="M222,-88.81C222,-80.79 222,-71.05 222,-62.07"/>
<polygon fill="black" stroke="black" points="225.5,-62.03 222,-52.03 218.5,-62.03 225.5,-62.03"/>
</g>
<!-- scheduler -->
<g id="node4" class="node">
<title>scheduler</title>
<path fill="none" stroke="black" d="M389.5,-125C389.5,-125 324.5,-125 324.5,-125 318.5,-125 312.5,-119 312.5,-113 312.5,-113 312.5,-101 312.5,-101 312.5,-95 318.5,-89 324.5,-89 324.5,-89 389.5,-89 389.5,-89 395.5,-89 401.5,-95 401.5,-101 401.5,-101 401.5,-113 401.5,-113 401.5,-119 395.5,-125 389.5,-125"/>
<text text-anchor="middle" x="357" y="-103.3" font-family="Times,serif" font-size="14.00">Scheduler</text>
</g>
<!-- scheduler&#45;&gt;dag -->
<g id="edge5" class="edge">
<title>scheduler&#45;&gt;dag</title>
<path fill="none" stroke="black" d="M352.88,-88.81C350.94,-80.7 348.58,-70.84 346.41,-61.78"/>
<polygon fill="black" stroke="black" points="349.81,-60.94 344.08,-52.03 343,-62.57 349.81,-60.94"/>
</g>
<!-- scheduler&#45;&gt;database -->
<g id="edge6" class="edge">
<title>scheduler&#45;&gt;database</title>
<path fill="none" stroke="black" d="M324.66,-88.99C306.35,-79.36 283.24,-67.21 263.58,-56.87"/>
<polygon fill="black" stroke="black" points="265.02,-53.67 254.54,-52.11 261.76,-59.87 265.02,-53.67"/>
</g>
<!-- web -->
<g id="node5" class="node">
<title>web</title>
<path fill="none" stroke="black" d="M102,-125C102,-125 28,-125 28,-125 22,-125 16,-119 16,-113 16,-113 16,-101 16,-101 16,-95 22,-89 28,-89 28,-89 102,-89 102,-89 108,-89 114,-95 114,-101 114,-101 114,-113 114,-113 114,-119 108,-125 102,-125"/>
<text text-anchor="middle" x="65" y="-103.3" font-family="Times,serif" font-size="14.00">Web server</text>
</g>
<!-- web&#45;&gt;database -->
<g id="edge2" class="edge">
<title>web&#45;&gt;database</title>
<path fill="none" stroke="black" d="M102.61,-88.99C124.29,-79.19 151.76,-66.77 174.88,-56.31"/>
<polygon fill="black" stroke="black" points="176.49,-59.42 184.16,-52.11 173.6,-53.05 176.49,-59.42"/>
</g>
<!-- web&#45;&gt;workers -->
<g id="edge1" class="edge">
<title>web&#45;&gt;workers</title>
<path fill="none" stroke="black" d="M114.06,-107C122.65,-107 131.24,-107 139.82,-107"/>
<polygon fill="black" stroke="black" points="139.9,-110.5 149.9,-107 139.9,-103.5 139.9,-110.5"/>
</g>
<!-- edge_worker -->
<g id="node6" class="node">
<title>edge_worker</title>
<path fill="none" stroke="black" d="M324,-233C324,-233 238,-233 238,-233 232,-233 226,-227 226,-221 226,-221 226,-209 226,-209 226,-203 232,-197 238,-197 238,-197 324,-197 324,-197 330,-197 336,-203 336,-209 336,-209 336,-221 336,-221 336,-227 330,-233 324,-233"/>
<text text-anchor="middle" x="281" y="-211.3" font-family="Times,serif" font-size="14.00">Edge Worker</text>
</g>
<!-- edge_worker&#45;&gt;web -->
<g id="edge8" class="edge">
<title>edge_worker&#45;&gt;web</title>
<path fill="none" stroke="black" d="M234.39,-196.99C206.72,-186.33 171.25,-171.67 141,-156 126.59,-148.53 111.34,-139.21 98.32,-130.77"/>
<polygon fill="black" stroke="black" points="99.98,-127.67 89.7,-125.11 96.13,-133.52 99.98,-127.67"/>
<text text-anchor="middle" x="219.5" y="-167.8" font-family="Times,serif" font-size="14.00">HTTP(s)</text>
</g>
<!-- edge_dag -->
<g id="node7" class="node">
<title>edge_dag</title>
<path fill="none" stroke="black" d="M560,-125C560,-125 432,-125 432,-125 426,-125 420,-119 420,-113 420,-113 420,-101 420,-101 420,-95 426,-89 432,-89 432,-89 560,-89 560,-89 566,-89 572,-95 572,-101 572,-101 572,-113 572,-113 572,-119 566,-125 560,-125"/>
<text text-anchor="middle" x="496" y="-103.3" font-family="Times,serif" font-size="14.00">DAG files (Remote)</text>
</g>
<!-- edge_worker&#45;&gt;edge_dag -->
<g id="edge7" class="edge">
<title>edge_worker&#45;&gt;edge_dag</title>
<path fill="none" stroke="black" d="M322.87,-197C349.1,-186.01 383.42,-171 413,-156 428.62,-148.08 445.41,-138.57 459.78,-130.11"/>
<polygon fill="black" stroke="black" points="461.57,-133.12 468.38,-125 457.99,-127.1 461.57,-133.12"/>
</g>
</g>
</svg>
