<svg xmlns="http://www.w3.org/2000/svg" width="183.122" height="48.105">
    <path fill="#FFF" d="M3.701 4.24h45.573v40.331H3.701z"/>
    <path fill="#E20025" d="M32.428 4.24l16.846 40.331V4.24H32.428zm-28.727 0v40.331L20.56 4.24H3.701zm15.427 32.219h7.855l3.21 8.112h7.034L26.495 19.103l-7.367 17.356z"/>
    <path d="M73.332 4.134l-9.12 40.438h5.52l2.4-11.159h8.4l2.34 11.159h5.58l-8.58-40.438h-6.54zm-.54 24.778l1.92-9.659c.54-2.58 1.14-6.3 1.56-9.239h.24c.42 2.88.96 6.479 1.5 9.239l1.86 9.659h-7.08zm36.729-25.858h-5.64v15.179h-.12c-1.02-2.22-2.88-3.3-5.22-3.3-4.619 0-9 4.858-9 15.179 0 9.06 3.3 14.939 8.7 14.939 2.938 0 5.159-1.98 6.119-4.021h.181l.359 3.54h4.859c-.12-2.04-.24-5.279-.24-7.499l.002-34.017zm-5.64 31.259c0 .659-.061 1.38-.18 1.858-.96 3.479-2.641 4.141-3.9 4.141-3 0-4.56-4.199-4.56-10.199 0-5.4 1.199-10.32 4.739-10.32 2.04 0 3.54 2.28 3.84 4.92.061.601.061 1.261.061 1.801v7.799zm19.373-19.38c-5.339 0-10.319 4.5-10.319 15.119 0 10.021 4.2 15 10.021 15h.061c4.439 0 10.14-3.54 10.14-15.119-.003-9.839-4.143-15-9.903-15zm-.119 25.678h-.061c-3.659 0-4.5-5.76-4.5-10.619 0-4.38.721-10.62 4.439-10.62 3.6 0 4.38 6.24 4.38 10.62.002 4.441-.779 10.619-4.258 10.619zm25.297-25.678c-2.579 0-4.619 1.14-6.119 3.779h-.12V3.054h-5.64v34.019c0 2.22-.12 5.521-.24 7.499h4.86l.3-3.659h.239c1.261 2.58 2.88 4.141 5.76 4.141 4.8 0 9.061-5.102 9.061-15.54-.002-8.941-3.122-14.581-8.101-14.581zm-2.22 25.379c-1.141 0-2.88-.721-3.78-4.26-.18-.479-.239-1.141-.239-1.801v-8.158c0-.602.061-1.381.181-1.98.42-2.1 1.92-4.32 3.778-4.32 3.36 0 4.682 4.5 4.682 10.08-.002 5.999-1.263 10.439-4.622 10.439zm23.561-25.379c-6.061 0-10.439 5.88-10.439 15.418 0 9 3.841 14.52 11.16 14.52 2.579 0 5.22-.479 6.96-1.379l-.841-4.08c-1.261.601-3 1.079-5.039 1.079-3.421 0-6.66-1.859-6.721-9.358l13.68.061c.061-.78.119-1.681.119-3.12 0-7.321-2.819-13.141-8.879-13.141zm-4.86 12.179c.181-3.66 1.5-7.92 4.439-7.92 2.22 0 4.021 2.76 3.96 7.92h-8.399zm13.492-10.911v-.011c.155-.046.282-.162.282-.353 0-.139-.046-.236-.133-.3-.086-.063-.229-.109-.449-.109-.173 0-.288.018-.409.034v1.448h.23v-.623h.161c.185 0 .276.069.312.254.028.19.063.323.1.369h.24a1.25 1.25 0 01-.092-.357c-.029-.214-.115-.329-.242-.352zm-.311-.093h-.167v-.49c.04-.005.092-.011.167-.011.26 0 .352.126.352.253-.001.18-.162.248-.352.248zm.081-1.251h-.006a1.29 1.29 0 00-1.286 1.298c0 .732.577 1.303 1.286 1.303.715 0 1.28-.57 1.28-1.303a1.28 1.28 0 00-1.274-1.298zm0 2.399c-.577 0-1.044-.483-1.044-1.101 0-.605.467-1.096 1.038-1.096h.006c.576 0 1.037.49 1.037 1.102 0 .61-.461 1.101-1.037 1.095zM51.496 4.24h-.006a1.29 1.29 0 00-1.286 1.297c0 .732.576 1.303 1.286 1.303.715 0 1.279-.57 1.279-1.303a1.278 1.278 0 00-1.273-1.297zm0 2.399c-.577 0-1.043-.484-1.043-1.102 0-.604.467-1.096 1.038-1.096h.006c.577 0 1.038.49 1.038 1.101-.002.613-.463 1.103-1.039 1.097zm.231-1.055v-.012c.155-.046.282-.162.282-.352 0-.139-.046-.237-.132-.301-.086-.063-.231-.108-.45-.108-.172 0-.288.017-.409.035v1.446h.231V5.67h.161c.185 0 .276.069.312.254.028.19.063.322.098.369h.243c-.023-.046-.058-.133-.093-.357-.03-.214-.116-.329-.243-.352zm-.312-.093h-.167v-.49c.04-.005.092-.012.167-.012.259 0 .352.127.352.254 0 .179-.162.248-.352.248z"/>
</svg>
