<svg xmlns="http://www.w3.org/2000/svg" id="Group_682" width="139.55" height="60.25" data-name="Group 682" viewBox="0 0 139.55 60.25">
    <path id="Path_624" d="M298.423 157.971c0 6.651 4.875 9.953 10.306 13.021l4.842 2.753c2.637 1.485 3.816 3.165 3.816 5.442 0 3.016-2.227 4.891-5.81 4.891-6.606 0-8.593-5.49-9.668-10.862l-.166-.835h-3.234V187.5h2.512l.31-.349c.581-.654.581-.654 1.143-.654a15.716 15.716 0 0 1 3.666.6 26.522 26.522 0 0 0 6.022.9c5.464 0 13.159-3.665 13.159-11.814 0-5.685-3.4-8.232-7.518-10.75l-9.033-5.352a5.589 5.589 0 0 1-3.081-5.036c0-1.762 1.412-4.385 5.305-4.385 2.891 0 6.446 1.074 8.251 9.45l.18.824h3.169l-.4-13.531h-2.535l-.3.524a.707.707 0 0 1-.6.394c-.131-.006-.842-.236-1.27-.374a21.816 21.816 0 0 0-6.5-1.3c-7.285 0-12.572 4.759-12.572 11.318" fill="#e50034" data-name="Path 624" transform="translate(-230.485 -127.877)"/>
    <path id="Path_625" d="M36.892 109.727c0-10.7 5.02-14.493 9.319-14.493a7.619 7.619 0 0 1 7.559 7.811V121.6c-.574 2.394-3.258 4.132-6.391 4.132-4.836 0-10.486-4.2-10.486-16m24.438-37.591l-.27.1c-1.5.537-7.409 2.472-12.176 3.646l-.8.2v3.312l1.148-.12c2.676-.275 3.69.074 4.069.416.439.4.462 1.2.462 2.472V93.3a12.647 12.647 0 0 0-7.81-2.492A17.162 17.162 0 0 0 33 97.353a23.779 23.779 0 0 0-5.38 15.047c0 19.2 14.582 19.753 16.246 19.753a13.586 13.586 0 0 0 9.9-3.729v2.962l1.2.9 13.5-4.775v-3.2l-1.121.087c-2.623.2-3.629-.177-4.012-.529s-.461-.992-.461-2.11V72.683l-1.442-.577z" fill="#e50034" data-name="Path 625" transform="translate(-27.626 -72.032)"/>
    <path id="Path_626" d="M440.946 127.855c-3.677-.649-4.152-.738-4.152-6.078v-16.791c0-9.5-3.809-14.323-11.312-14.323a15.084 15.084 0 0 0-11.238 5.192V72.736l-1.375-.824-.13.056-.354.142c-1.762.724-8.6 2.765-11.744 3.641l-.762.209v3.294l1.157-.128a16.11 16.11 0 0 1 1.974-.079 2.258 2.258 0 0 1 1.639.483 3.589 3.589 0 0 1 .5 2.437v39.643c0 5.337-.332 5.8-4.411 6.233l-.939.1v3.231h19.369v-3.314l-.169-.016c-3.742-.4-4.748-.508-4.748-6.152V101.9c.469-.58 3.91-4.64 8.142-4.64 3.673 0 5.309 2.487 5.309 8.064v16.455c0 5.183-.895 5.776-4.719 6.064h-.076v3.329h18.906V128l-.86-.15" fill="#e50034" data-name="Path 626" transform="translate(-306.422 -71.887)"/>
    <path id="Path_627" d="M208.269 279.768c6.39 0 9.617-3.694 11.889-8.07.151-.288.034-.488-.257-.354a25.2 25.2 0 0 1-23.265 0c-.289-.133-.408.067-.257.354 2.272 4.377 5.5 8.07 11.889 8.07" fill="#e50034" fill-rule="evenodd" data-name="Path 627" transform="translate(-153.993 -221.253)"/>
    <path id="Path_628" d="M206.6 229.682c1.76 3.414 4.291 6.393 9.337 6.393s7.577-2.98 9.336-6.393c.118-.229.024-.4-.222-.294a20.989 20.989 0 0 1-18.228 0c-.246-.107-.343.065-.224.294" fill="#e50034" fill-rule="evenodd" data-name="Path 628" transform="translate(-161.657 -189.83)"/>
    <path id="Path_629" d="M215.956 191.162c1.3 2.536 3.186 4.855 7 4.855s5.705-2.32 7-4.855c.09-.175.014-.322-.192-.236a17.457 17.457 0 0 1-13.612 0c-.2-.086-.283.062-.194.236" fill="#e50034" fill-rule="evenodd" data-name="Path 629" transform="translate(-168.68 -161.023)"/>
    <path id="Path_630" d="M229.555 158.393c2.656 0 3.949-1.706 4.8-3.41.064-.128 0-.248-.166-.185a15.213 15.213 0 0 1-9.272 0c-.169-.063-.229.057-.165.185.853 1.7 2.144 3.41 4.8 3.41" fill="#e50034" fill-rule="evenodd" data-name="Path 630" transform="translate(-175.279 -133.965)"/>
    <path id="Path_631" d="M214.968 79.092a7.275 7.275 0 1 1 7.275 7.275 7.277 7.277 0 0 1-7.275-7.275" fill="#e50034" data-name="Path 631" transform="translate(-167.967 -71.813)"/>
    <g id="Group_674" data-name="Group 674" transform="translate(136.411 56.162)">
        <path id="Path_632" d="M576.085 299.279l.511.784h-.3l-.474-.774h-.313v.774h-.27v-1.785h.681c.422 0 .631.155.631.508a.466.466 0 0 1-.466.493zm-.255-.219c.232 0 .434-.017.434-.29 0-.223-.2-.264-.39-.264h-.368v.555z" fill="#e50034" data-name="Path 632" transform="translate(-574.261 -297.624)"/>
        <path id="Path_633" d="M574.488 297.214a1.57 1.57 0 1 1-1.565-1.544 1.547 1.547 0 0 1 1.565 1.544zm-.311 0a1.258 1.258 0 1 0-1.254 1.293 1.251 1.251 0 0 0 1.255-1.293z" fill="#e50034" data-name="Path 633" transform="translate(-571.349 -295.67)"/>
    </g>
</svg>
