<svg xmlns="http://www.w3.org/2000/svg" viewBox="0 0 353.2 68">
    <path fill="#32B846" d="M38.9 17.2c0 2-1.6 3.6-3.6 3.6s-3.6-1.6-3.6-3.6 1.6-3.6 3.6-3.6 3.6 1.7 3.6 3.6zm-9 38.6c0 2-1.6 3.6-3.6 3.6s-3.6-1.6-3.6-3.6 1.6-3.6 3.6-3.6 3.6 1.6 3.6 3.6zM41.6 38c-.2.2-.7.2-.9 0L39 36.4c-.3-.2-.3-.7 0-.9l3.6-3.6-3.8-3.7-9.2 9.1c-.2.2-.7.2-.9 0l-5.4-5.4c-.2-.2-.2-.7 0-.9l4.8-4.8H12.3c-.5 0-.7-.6-.4-.9l2-2c.3-.2.9-.7 1.5-.7h22.3c.2 0 .7.1 1 .4l8.5 8.5c.2.2.2.7 0 .9L41.6 38zm-20.3-5c.2-.2.7-.2.9 0l1.6 1.6c.2.2.2.7 0 .9L14.3 45c-.2.2-.7.2-.9 0l-1.6-1.6c-.2-.2-.2-.7 0-.9l9.5-9.5zM68 34C68 15.2 52.8 0 34 0S0 15.2 0 34c0 7.8 2.6 15 7.1 20.7l18-18c.3-.2.7-.2.9 0l1.6 1.6c.2.3.2.7 0 .9L9.4 57.5C15.6 64 24.3 68 34 68c18.8 0 34-15.2 34-34zM352.2 42.4c0-.2-.2-.4-.3-.5-.2-.1-.4-.1-.6 0-.3.1-.6.2-1 .2-1.1 0-1.5-.7-1.5-2V17.6c0-.4-.3-.7-.7-.7h-.7c-.4 0-.9.2-1.2.5l-4 4c-.4.4-.7 1-.7 1.7v18.6c0 4.7 2.6 6.4 6.3 6.4 1.6 0 3.6-.3 5-1.1.3-.2.4-.5.3-.8-.1-.6-.3-1.7-.9-3.8zm-13.9 0c0-.2-.2-.4-.4-.5-.2-.1-.4-.1-.6 0-.3.1-.6.2-1 .2-1.1 0-1.6-.7-1.6-2V17.6c0-.4-.3-.7-.7-.7h-.6c-.4 0-.8.2-1.2.5l-4.1 4c-.4.4-.7 1-.7 1.7v18.6c0 4.7 2.6 6.4 6.3 6.4 1.6 0 3.6-.3 5-1.1.3-.2.4-.5.3-.8.1-.6-.2-1.7-.7-3.8zm-23.2-2.3c-.9.9-2.6 1.7-4.3 1.7-3.1 0-5.2-2.2-5.2-5.5 0-3.2 2-5.4 5.2-5.4 1.6 0 3.2.7 4.3 1.8v7.4zm6.3 7.5c.5 0 .8-.4.8-.8V26c0-.4-.3-.7-.7-.7h-5.8c-.4 0-.7.3-.7.7v1.4c-1.5-1.5-3.7-2.5-6.4-2.5-6.2 0-10.4 4.8-10.4 11.5 0 6.8 4.1 11.7 10.4 11.7 2.9 0 5-1.2 6.4-2.7v1.5c0 .4.3.7.7.7h5.7zm-33.8-11.3c0 3.3-2 5.5-5.3 5.5-1.8 0-3.5-.9-4.4-1.7v-7.5c1.1-1 2.7-1.8 4.4-1.8 3.2 0 5.3 2.2 5.3 5.5zm7.3 0c0-6.8-4.3-11.6-10.6-11.6-2.7 0-5 1-6.5 2.5v-9.6c0-.4-.3-.7-.7-.7h-.6c-.4 0-.9.2-1.2.5l-4.2 4.2c-.4.4-.7 1-.7 1.7V47c0 .4.3.7.7.7h5.9c.4 0 .7-.3.7-.7v-1.6c1.4 1.6 3.5 2.7 6.5 2.7 6.5 0 10.7-5 10.7-11.8zm-36.5-5.5h7.1c.4 0 .7-.3.7-.7V26c0-.4-.3-.7-.7-.7h-7.1v-5c0-.4-.3-.7-.7-.7h-.5c-.4 0-.8.2-1.1.4l-8.3 7.7c-.3.3-.5.6-.5 1v1.4c0 .4.3.7.7.7h3.1v9c0 5.4 3.1 8.2 7.9 8.2 3.3 0 5.7-.8 7.5-2 .3-.2.4-.6.3-.9-.2-.6-.7-1.7-1.6-3.9-.1-.2-.2-.3-.4-.4-.2-.1-.4 0-.6.1-.9.5-2 .9-3.1.9-1.7 0-2.7-1-2.7-3.5v-7.5zm-19.7 5.6c0 3-2.1 5.3-5.3 5.3-3.1 0-5.2-2.3-5.2-5.3 0-3.1 2.1-5.4 5.2-5.4 3.1.1 5.3 2.4 5.3 5.4zm6.8 0c0-6.8-5.1-11.8-12.2-11.8-7 0-12.1 5-12.1 11.8 0 6.7 5.1 11.6 12.1 11.6 7.1.1 12.2-4.8 12.2-11.6zm-34 0c0 3-2.1 5.3-5.3 5.3-3.1 0-5.2-2.3-5.2-5.3 0-3.1 2.1-5.4 5.2-5.4 3.2.1 5.3 2.4 5.3 5.4zm-90.7-3.2c0-8.6-6.5-14.9-15.1-14.9s-15 6.4-15 14.9c0 8.6 6.3 14.9 15 14.9s15.1-6.4 15.1-14.9zm97.5 3.2c0-6.8-5.1-11.8-12.2-11.8-6.9 0-12.1 5-12.1 11.8 0 6.7 5.1 11.6 12.1 11.6 7.1.1 12.2-4.8 12.2-11.6zM173.7 34c0-5.1-3.3-9.3-10.1-9.3-7.2 0-11.9 5-11.9 11.8 0 6.6 3.8 11.6 12.3 11.6 3.2 0 6.5-.8 9-2.6.3-.2.4-.6.2-.9-.3-.5-.9-1.5-2-3.4-.1-.2-.2-.3-.4-.3s-.4 0-.5.1c-1.7 1-4 1.7-5.9 1.7-3.3 0-5.1-1.6-5.6-4.2h13.8c.3 0 .6-.2.7-.6.3-1.3.4-2.9.4-3.9zm-48.1-8.7c-.4 0-.7.3-.7.7v20.9c0 .4.3.7.7.7h5.8c.4 0 .7-.3.7-.7V34.1c.7-1.3 2.1-2.8 4.5-2.8 2.7 0 4 1.6 4 4.4v11.1c0 .4.3.7.7.7h5.8c.4 0 .7-.3.7-.7V34.7c0-5.5-2.5-9.9-8.6-9.9-3 0-5.4 1.1-7.1 3V26c0-.4-.3-.7-.7-.7h-5.8zm64.6 6.1c.5 0 1-.2 1.3-.6l3.1-3.8c.2-.2.2-.5.1-.7-.1-.2-.4-.4-.6-.4h-6.2v-2c0-1.4.6-2.3 2.1-2.3.5 0 1.9.2 3 .5.4.1.7-.1.9-.4.2-.6.7-1.8 1.4-4 .1-.4-.1-.8-.4-.9-1.8-.7-4.9-1.1-6.1-1.1-5.6 0-8.1 3.9-8.1 8.3v1.9h-3.1c-.4 0-.7.3-.7.7v4.1c0 .4.3.7.7.7h3.1v15.4c0 .4.3.7.7.7h5.9c.4 0 .7-.3.7-.7V31.4h2.2zm-76.5 1.8c0 4.6-3.2 8.1-7.9 8.1-4.6 0-8-3.5-8-8.1 0-4.7 3.3-8.2 8-8.2s7.9 3.5 7.9 8.2zm53.7.3v.9h-8.5c.3-2.5 1.8-4.5 4.6-4.5 2.7-.1 3.9 1.4 3.9 3.6z"/>
</svg>
