<svg id="Layer_1" data-name="Layer 1" xmlns="http://www.w3.org/2000/svg" viewBox="0 0 1000 1000"><defs><style>.cls-1{fill:#231f20;}</style></defs><title>logo plarium</title><path class="cls-1" d="M196.37,696.49A94.59,94.59,0,0,0,200.9,686a86,86,0,0,0,3-10.39c-6.16-.61-18.08-1-25.61-1-9.88,0-17.83.25-26.52.64h-.08l-7.59,21.42.11-.09c8.34.61,16.06.7,25.92.73,9.69,0,17.66-.28,26.27-.87m-60.32-34.6c15-.56,27-1,46.94-1h.3A381.9,381.9,0,0,1,228,663.47a122.35,122.35,0,0,1-6,22.58,143,143,0,0,1-10.22,22.67c-15.64,1.25-31.36,1.83-46.36,1.8-6.55,0-14.94-.14-26.28-.36l-7.74,21.89H111Z"/><path class="cls-1" d="M248.29,661.89h21l-4.7,13c-4.8,13.53-9.91,28.7-14.11,42.25a160.8,160.8,0,0,0,23.28,1.3,182,182,0,0,0,24.16-1.19,84.45,84.45,0,0,0,3.84-8.39l20.66,0c-2.94,7.42-6.08,14.33-10.05,22.22a402,402,0,0,1-43.86,2,353.79,353.79,0,0,1-42.33-2.2c5-18.11,11.41-38,17.86-56.1Z"/><path class="cls-1" d="M395.25,676.25l-22.81,27,46.89.08L416,676.27c-2.33-.16-7-.41-10.25-.41s-7.83.19-10.49.39m-9.5-14c.94-.23,9.41-1.14,22.22-1.09h3c8.34,0,15.84.2,24.42,1l8.16,69.89H423l-1.89-14.72-60.38-.14-12.28,14.86H327.92l50.8-61.39Z"/><path class="cls-1" d="M483.76,661.75l49,.14c14.77,0,33.41.25,47.86,2.11a130,130,0,0,1-5.12,20.36,149,149,0,0,1-11.13,25c-7.39.36-15.7,1-23.78,1.31l19.44,21.36H533.93l-29.78-32.33.67-2h10.86c12.14,0,22.72-.08,33.36-.5a118.15,118.15,0,0,0,4.77-11.31,91.43,91.43,0,0,0,3.06-10.41c-9.44-.42-18.25-.45-28.91-.47l-28.2,0-20.41,57.08H458.91Z"/><polygon class="cls-1" points="606.06 661.89 626.45 661.89 601.39 732.05 580.84 732.05 606.06 661.89"/><path class="cls-1" d="M652,662.22h20.64l-4.37,12.44c-5,13.84-9.77,29.14-14,42.8a217,217,0,0,0,28.08,1.31,241.68,241.68,0,0,0,28.86-1.36c5.75-13.67,11.53-29,16.5-42.8l4.39-12.39H753.1l-4.39,12.39c-6.44,18-15.13,37.33-22.19,55.24a322.77,322.77,0,0,1-49.3,3.59c-16.05,0-31.77-.87-47.05-3.5,4.78-18,10.83-37.33,17.28-55.28Z"/><path class="cls-1" d="M775.38,662.47c13.39-.72,27.58-1.28,49.44-1.53.78,0,1.78-.05,2.55-.05h5.2A503.43,503.43,0,0,1,889,663.64c-6.67,21.66-15,46.8-22.67,68.46H845.82c6-17.27,13.19-38.13,18.36-55.35-8.64-.61-17.59-1-26.45-1.2l-20,56.55H797.07l20-56.49c-9.11.19-18.36.58-27.36,1.19-7,17.25-14.67,38-20.72,55.3H748.46c6-17.27,13.47-36.94,20.81-55.05,1.47-3.69,6.11-14.58,6.11-14.58"/><path class="cls-1" d="M823.54,261.45c2.56,4,2.5,6.67,2.14,8.42h-.06c-.08.44-.22.86-.33,1.27-1.81,5-7.78,10.45-16.69,15.22-26.11,13.78-60.47,27.5-102.44,41V327c-.19-13.33-13-23.28-42.83-33.22-194.67-64.88-354.63-7.47-411.74,26.39,17.83-51.19,41.61-107,56.47-115.35,78.91-44.5,186.57-62.16,295.33-48.33,102.38,13,186.74,53.24,220.15,105"/><path class="cls-1" d="M815,306.64c-14.75,48.5-34.28,104.94-45.22,117.1-36.11,39.94-381.19,118.6-572.59,26.58,109.46-14,463.49-64.08,617.81-143.68"/><path class="cls-1" d="M479.32,285.09l-37.8,105.65c-7,1.34-14.11,2.62-21.28,3.92-36.16,6.56-71,12.3-102.68,17.28-32.81-13.89-76.52-40.22-77.69-55.89a4.52,4.52,0,0,1,.11-.47c5.61-9.36,49.47-38.94,125.16-56.83a511.39,511.39,0,0,1,114.18-13.66"/><path class="cls-1" d="M400.27,513.4l-24.5,70.74H273.45l28.25-80.38a711.39,711.39,0,0,0,98.57,9.64"/></svg>
