<?xml version="1.0" encoding="UTF-8"?>
<svg width="198px" height="37px" viewBox="0 0 198 37" version="1.1" xmlns="http://www.w3.org/2000/svg" xmlns:xlink="http://www.w3.org/1999/xlink">
    <title>sl-logo_color</title>
    <g id="sl-logo_color" stroke="none" stroke-width="1" fill="none" fill-rule="evenodd">
        <g id="Group" transform="translate(96.736954, 18.459500) rotate(-270.000000) translate(-96.736954, -18.459500) translate(83.277454, -73.277454)">
            <path d="M13.476,158.946 C13.244,158.767 13.013,158.588 12.777,158.412 C12.312,158.066 11.843,157.806 11.374,157.611 C8.727,159.709 6.365,161.926 4.502,163.808 C4.709,164.523 5.061,165.271 5.594,166.036 C7.62,163.952 10.366,161.34 13.476,158.946" id="Fill-936" fill="#7DC24C"></path>
            <path d="M21.586,179.194 C20.292,180.831 17.943,181.701 15.545,180.702 C15.093,181.06 14.633,181.416 14.165,181.765 C13.932,181.939 13.687,182.1 13.434,182.25 C17.24,184.609 21.344,183.273 23.41,180.659 C24.39,179.419 24.984,177.838 24.984,176.099 C24.984,174.995 24.742,173.826 24.209,172.641 C23.682,173.205 23.082,173.833 22.418,174.504 C22.964,176.401 22.479,178.064 21.586,179.194" id="Fill-937" fill="#7DC24C"></path>
            <path d="M13.487,156.062 C13.715,156.203 13.941,156.356 14.166,156.523 C14.647,156.883 15.12,157.249 15.586,157.619 C17.97,156.646 20.299,157.516 21.586,159.143 C22.473,160.265 22.957,161.915 22.428,163.796 C22.227,164.513 21.876,165.264 21.345,166.033 C20.839,166.765 20.169,167.512 19.304,168.263 C19.276,168.286 19.249,168.311 19.222,168.337 C19.126,168.434 19.048,168.546 18.993,168.664 C18.917,168.824 18.881,168.996 18.881,169.168 L18.881,169.169 C18.881,169.342 18.917,169.515 18.993,169.675 C19.05,169.794 19.126,169.904 19.223,170 C19.249,170.027 19.276,170.051 19.303,170.075 C20.159,170.815 20.821,171.553 21.325,172.276 C21.939,171.645 22.485,171.062 22.957,170.549 C22.607,170.086 22.211,169.625 21.761,169.169 C22.221,168.703 22.623,168.233 22.977,167.761 C23.5,167.062 23.914,166.36 24.224,165.664 C25.579,162.627 25.007,159.7 23.41,157.679 C20.707,154.259 16.465,154.297 13.487,156.062" id="Fill-939" fill="#7DC24C"></path>
            <path d="M0.287,168.397 C0.215,168.48 0.156,168.571 0.112,168.667 C0.037,168.826 0,168.998 0,169.168 L0,169.169 C0,169.342 0.038,169.514 0.114,169.674 C0.158,169.768 0.216,169.858 0.286,169.939 C0.521,170.22 1.377,171.234 2.696,172.648 C3.224,173.215 3.826,173.844 4.492,174.517 C6.347,176.392 8.699,178.601 11.335,180.694 C11.816,180.497 12.299,180.232 12.778,179.876 C13.002,179.707 13.223,179.537 13.444,179.366 C10.337,176.97 7.595,174.359 5.575,172.28 C4.962,171.647 4.414,171.064 3.944,170.552 C3.439,170.001 3.021,169.53 2.706,169.169 C3.025,168.802 3.45,168.323 3.964,167.764 C3.439,167.067 3.024,166.367 2.711,165.672 C1.384,167.095 0.523,168.114 0.287,168.397" id="Fill-940" fill="#7DC24C"></path>
            <path d="M22.976,167.761 C23.481,168.311 23.899,168.783 24.214,169.144 C23.895,169.51 23.469,169.989 22.956,170.549 C22.485,171.062 21.939,171.644 21.324,172.276 C19.301,174.36 16.554,176.972 13.443,179.366 C13.222,179.537 13.002,179.708 12.777,179.876 C12.3,180.232 11.816,180.497 11.334,180.694 C8.951,181.667 6.621,180.798 5.333,179.169 C4.447,178.047 3.963,176.398 4.491,174.518 C3.826,173.844 3.223,173.214 2.696,172.649 C1.341,175.687 1.913,178.614 3.51,180.634 C6.214,184.054 10.455,184.017 13.433,182.25 C13.686,182.1 13.932,181.939 14.165,181.765 C14.633,181.416 15.093,181.06 15.545,180.702 C18.193,178.604 20.555,176.386 22.417,174.505 C23.081,173.833 23.681,173.205 24.209,172.64 C25.536,171.218 26.397,170.198 26.633,169.915 C26.705,169.833 26.763,169.742 26.808,169.645 C26.883,169.487 26.919,169.316 26.919,169.145 L26.919,169.144 C26.919,168.972 26.882,168.799 26.806,168.639 C26.761,168.544 26.704,168.455 26.633,168.373 C26.399,168.092 25.543,167.079 24.224,165.664 C23.913,166.361 23.499,167.062 22.976,167.761" id="Fill-941" fill="#3FC2CD"></path>
            <path d="M3.51,157.654 C2.53,158.894 1.935,160.475 1.935,162.214 C1.935,163.319 2.177,164.488 2.711,165.673 C3.019,166.359 3.428,167.05 3.944,167.737 L3.943,167.737 C3.947,167.743 3.951,167.748 3.955,167.753 C3.957,167.757 3.961,167.76 3.963,167.764 L3.964,167.764 C4.309,168.219 4.717,168.699 5.159,169.147 C4.699,169.613 4.297,170.082 3.943,170.555 C4.413,171.068 4.961,171.65 5.574,172.283 C6.081,171.551 6.75,170.803 7.616,170.053 C7.644,170.029 7.672,170.005 7.697,169.978 C7.794,169.881 7.872,169.77 7.927,169.651 C8.002,169.492 8.039,169.319 8.039,169.147 L8.039,169.146 C8.039,168.974 8.002,168.801 7.926,168.641 C7.87,168.522 7.794,168.412 7.697,168.315 C7.671,168.288 7.644,168.264 7.616,168.241 C6.761,167.501 6.099,166.763 5.594,166.039 C5.548,166.087 5.504,166.132 5.458,166.179 C5.504,166.131 5.548,166.085 5.594,166.037 C5.061,165.272 4.709,164.524 4.502,163.809 C3.956,161.912 4.441,160.249 5.334,159.119 C6.628,157.482 8.977,156.612 11.374,157.612 C11.842,157.807 12.312,158.066 12.777,158.413 C13.013,158.589 13.244,158.768 13.476,158.947 C16.583,161.342 19.326,163.953 21.344,166.033 C21.875,165.265 22.226,164.514 22.427,163.796 C20.573,161.921 18.221,159.712 15.585,157.619 C15.119,157.25 14.647,156.884 14.165,156.524 C13.94,156.356 13.713,156.204 13.487,156.062 C9.679,153.704 5.575,155.041 3.51,157.654" id="Fill-943" fill="#3FC2CD"></path>
            <path d="M8.441,139.358 C8.019,139.683 7.666,140.142 7.381,140.735 C7.097,141.328 6.955,141.925 6.955,142.526 C6.955,142.884 7,143.241 7.089,143.598 C7.178,143.956 7.316,144.28 7.503,144.573 C7.69,144.865 7.934,145.104 8.234,145.292 C8.534,145.478 8.896,145.572 9.318,145.572 C9.708,145.572 10.042,145.491 10.317,145.328 C10.594,145.166 10.829,144.942 11.024,144.658 C11.219,144.374 11.389,144.029 11.535,143.622 C11.682,143.217 11.828,142.769 11.974,142.283 C12.153,141.73 12.356,141.158 12.583,140.564 C12.811,139.972 13.111,139.427 13.485,138.931 C13.859,138.436 14.329,138.03 14.899,137.713 C15.466,137.397 16.174,137.238 17.018,137.238 C17.944,137.238 18.753,137.409 19.443,137.75 C20.134,138.091 20.706,138.546 21.159,139.114 C21.616,139.683 21.957,140.349 22.183,141.113 C22.41,141.876 22.525,142.68 22.525,143.525 C22.525,144.645 22.318,145.742 21.903,146.814 C21.489,147.886 20.876,148.763 20.063,149.446 L18.017,147.253 C18.602,146.83 19.065,146.265 19.407,145.559 C19.746,144.852 19.918,144.159 19.918,143.476 C19.918,143.118 19.873,142.753 19.783,142.379 C19.693,142.006 19.544,141.669 19.332,141.368 C19.122,141.068 18.858,140.824 18.541,140.637 C18.224,140.451 17.83,140.357 17.359,140.357 C16.905,140.357 16.527,140.463 16.226,140.674 C15.926,140.885 15.666,141.17 15.446,141.527 C15.227,141.885 15.036,142.307 14.874,142.794 C14.712,143.281 14.541,143.793 14.362,144.329 C14.199,144.849 14.005,145.368 13.777,145.889 C13.55,146.408 13.25,146.876 12.875,147.289 C12.502,147.703 12.044,148.041 11.499,148.301 C10.955,148.561 10.277,148.69 9.464,148.69 C8.587,148.69 7.833,148.507 7.199,148.143 C6.565,147.777 6.041,147.298 5.627,146.705 C5.213,146.111 4.904,145.437 4.701,144.682 C4.498,143.927 4.396,143.158 4.396,142.379 C4.396,141.502 4.551,140.613 4.86,139.712 C5.168,138.81 5.631,138.027 6.248,137.361 L8.441,139.358" id="Fill-944" fill="#6A6E6E"></path>
            <polyline id="Fill-945" fill="#6A6E6E" points="4.834 133.874 4.834 122.447 7.514 122.447 7.514 130.804 11.9 130.804 11.9 122.885 14.483 122.885 14.483 130.804 19.357 130.804 19.357 122.008 22.085 122.008 22.085 133.874 4.834 133.874"></polyline>
            <polyline id="Fill-946" fill="#6A6E6E" points="4.834 118.287 4.834 114.218 17.748 106.201 17.748 106.153 4.834 106.153 4.834 103.083 22.085 103.083 22.085 106.982 8.757 115.168 8.757 115.217 22.085 115.217 22.085 118.287 4.834 118.287"></polyline>
            <polygon id="Fill-947" fill="#6A6E6E" points="4.834 99.064 22.085 99.064 22.085 95.9931 4.834 95.9931"></polygon>
            <path d="M13.411,89.409 C14.338,89.409 15.186,89.268 15.957,88.983 C16.729,88.7 17.399,88.294 17.968,87.764 C18.537,87.237 18.978,86.612 19.295,85.889 C19.613,85.167 19.77,84.366 19.77,83.489 C19.77,82.613 19.613,81.809 19.295,81.077 C18.978,80.346 18.537,79.717 17.968,79.188 C17.399,78.661 16.729,78.255 15.957,77.971 C15.186,77.687 14.338,77.543 13.411,77.543 C12.519,77.543 11.69,77.687 10.927,77.971 C10.163,78.255 9.497,78.656 8.928,79.176 C8.36,79.696 7.913,80.322 7.587,81.052 C7.263,81.784 7.101,82.595 7.101,83.489 C7.101,84.383 7.263,85.191 7.587,85.913 C7.913,86.636 8.36,87.258 8.928,87.778 C9.497,88.298 10.163,88.7 10.927,88.983 C11.69,89.268 12.519,89.409 13.411,89.409 M13.411,92.748 C12.031,92.748 10.784,92.517 9.671,92.054 C8.559,91.591 7.612,90.95 6.832,90.129 C6.053,89.308 5.452,88.334 5.029,87.205 C4.607,86.076 4.396,84.846 4.396,83.514 C4.396,82.166 4.607,80.922 5.029,79.785 C5.452,78.649 6.053,77.665 6.832,76.838 C7.612,76.009 8.559,75.362 9.671,74.9 C10.784,74.436 12.031,74.206 13.411,74.206 C14.759,74.206 15.99,74.436 17.103,74.9 C18.215,75.362 19.175,76.009 19.979,76.838 C20.782,77.665 21.408,78.649 21.854,79.785 C22.302,80.922 22.524,82.166 22.524,83.514 C22.524,84.846 22.302,86.076 21.854,87.205 C21.408,88.334 20.782,89.308 19.979,90.129 C19.175,90.95 18.215,91.591 17.103,92.054 C15.99,92.517 14.759,92.748 13.411,92.748" id="Fill-948" fill="#6A6E6E"></path>
            <path d="M12.266,65.361 C12.266,64.923 12.233,64.485 12.169,64.045 C12.104,63.607 11.982,63.214 11.803,62.864 C11.624,62.514 11.369,62.227 11.035,61.999 C10.702,61.771 10.276,61.658 9.756,61.658 C9.286,61.658 8.899,61.764 8.598,61.974 C8.298,62.186 8.059,62.454 7.88,62.778 C7.702,63.104 7.579,63.472 7.514,63.886 C7.45,64.302 7.417,64.704 7.417,65.093 L7.417,67.872 L12.266,67.872 L12.266,65.361 Z M4.835,70.941 L4.835,64.948 C4.835,64.135 4.92,63.348 5.09,62.584 C5.261,61.82 5.541,61.142 5.931,60.55 C6.321,59.957 6.832,59.481 7.466,59.124 C8.1,58.767 8.871,58.587 9.78,58.587 C11.031,58.587 12.051,58.941 12.838,59.648 C13.627,60.355 14.159,61.316 14.434,62.535 L22.086,57.93 L22.086,61.633 L14.776,65.63 L14.776,67.872 L22.086,67.872 L22.086,70.941 L4.835,70.941 L4.835,70.941 Z" id="Fill-949" fill="#6A6E6E"></path>
            <polyline id="Fill-950" fill="#6A6E6E" points="4.834 54.895 4.834 51.825 19.357 51.825 19.357 44.491 22.085 44.491 22.085 54.895 4.834 54.895"></polyline>
            <polygon id="Fill-951" fill="#6A6E6E" points="4.834 41.252 22.085 41.252 22.085 38.1822 4.834 38.1822"></polygon>
            <polyline id="Fill-952" fill="#6A6E6E" points="4.834 34.211 4.834 30.142 17.748 22.125 17.748 22.077 4.834 22.077 4.834 19.007 22.085 19.007 22.085 22.906 8.757 31.092 8.757 31.142 22.085 31.142 22.085 34.211 4.834 34.211"></polyline>
            <polyline id="Fill-953" fill="#6A6E6E" points="4.834 15.034 4.834 11.965 12.29 11.965 12.29 11.891 4.834 4.679 4.834 0.536 12.802 8.602 22.085 0 22.085 4.314 13.435 11.891 13.435 11.965 22.085 11.965 22.085 15.034 4.834 15.034"></polyline>
        </g>
    </g>
</svg>
