<?xml version="1.0" encoding="UTF-8"?> <svg xmlns="http://www.w3.org/2000/svg" width="436" height="155" viewBox="0 0 436 155" fill="none"><g clip-path="url(#clip0_2318_5495)"><path d="M432.284 120.838C431.665 121 430.798 121.188 429.671 121.375C428.544 121.563 427.243 121.663 425.757 121.663C423.775 121.663 421.942 121.35 420.269 120.725C418.597 120.1 417.235 118.9 416.207 117.125C415.166 115.35 414.658 112.725 414.658 109.263V56.7877H434.229V40.9877H414.658V19.2627H395.199V40.9877H356.096V28.3502C356.096 24.2127 357.037 21.9127 358.92 19.7252C360.803 17.5377 363.961 16.4377 368.383 16.4377C370.29 16.4377 371.926 16.6002 373.313 16.9377C374.7 17.2752 375.827 17.5877 376.694 17.8752L381.104 2.08769C379.778 1.58769 377.747 1.03769 375.022 0.425195C372.285 -0.174805 369.027 -0.487305 365.212 -0.487305C360.035 -0.487305 355.278 0.525196 350.931 2.5502C346.583 4.5752 343.102 7.6252 340.477 11.7002C337.851 15.7752 336.538 20.6127 336.538 26.7002V40.9877H316.955V56.7877H336.538V137.088H356.096V56.7627H395.187V113.063C395.237 118.95 396.351 123.838 398.977 127.725C401.603 131.613 405.059 134.475 409.345 136.338C413.63 138.2 418.312 139.088 423.403 139C426.425 138.913 428.952 138.625 431.008 138.188C433.065 137.75 434.91 137.263 436.161 136.875L432.272 120.838H432.284ZM233.966 83.0377L218.508 79.5252C213.38 78.2752 209.664 76.7002 207.36 74.8002C205.069 72.9002 203.917 70.4002 203.917 67.3127C203.917 63.7252 205.639 60.7752 209.07 58.4752C212.501 56.1752 216.762 55.0252 221.852 55.0252C225.618 55.0252 228.764 55.6377 231.291 56.8752C233.818 58.1127 235.824 59.6877 237.31 61.6377C238.425 63.0877 239.305 64.5877 239.949 66.1377C240.172 66.6627 240.358 67.2002 240.531 67.7502H258.838C258.689 66.8502 258.516 65.9127 258.281 64.9252C257.822 62.9752 257.215 61.1377 256.485 59.3877C254.317 54.1627 251.022 49.9752 246.476 46.5377C240.432 41.9627 232.158 39.6752 221.642 39.6752C214.359 39.6752 207.918 40.8752 202.307 43.2752C196.696 45.6752 192.311 49.0252 189.14 53.3252C185.981 57.6252 184.396 62.6377 184.396 68.3627C184.396 75.2502 186.526 80.9502 190.787 85.4377C195.048 89.9252 201.675 93.1752 210.655 95.1752L226.794 98.7502C231.303 99.7502 234.66 101.25 236.852 103.225C239.045 105.213 240.135 107.688 240.135 110.65C240.135 114.238 238.363 117.275 234.833 119.763C231.291 122.25 226.572 123.488 220.651 123.488C215.188 123.488 210.754 122.313 207.335 119.95C203.917 117.588 201.65 114.088 200.535 109.45H181.398C181.398 110.325 181.448 111.213 181.597 112.088C182.34 116.388 183.752 120.2 185.845 123.525C187.926 126.85 190.688 129.688 194.107 132.038C200.957 136.738 209.838 139.088 220.762 139.088C228.541 139.088 235.378 137.8 241.274 135.238C247.17 132.663 251.79 129.125 255.147 124.625C258.504 120.113 260.176 114.938 260.176 109.088C260.176 102.288 258.008 96.7377 253.685 92.4627C249.362 88.1877 242.773 85.0377 233.917 83.0377H233.966ZM279.82 137.05H299.391V40.9502H279.82V137.038V137.05Z" fill="black"></path><path d="M289.568 31.0877C296.054 31.0877 301.311 25.7823 301.311 19.2377C301.311 12.6931 296.054 7.3877 289.568 7.3877C283.083 7.3877 277.826 12.6931 277.826 19.2377C277.826 25.7823 283.083 31.0877 289.568 31.0877Z" fill="#2E69FF"></path><path d="M83.0633 85.0873C79.2483 88.9373 73.0427 88.9373 69.2277 85.0873C65.4127 81.2373 65.4127 74.9748 69.2277 71.1248C73.0427 67.2748 79.2483 67.2748 83.0633 71.1248C86.8783 74.9748 86.8783 81.2373 83.0633 85.0873ZM45.1486 46.8248C41.3336 50.6748 41.3336 56.9373 45.1486 60.7873C48.9636 64.6373 55.1692 64.6373 58.9842 60.7873C62.7992 56.9373 62.7992 50.6748 58.9842 46.8248C55.1692 42.9748 48.9636 42.9748 45.1486 46.8248ZM21.0695 36.4873C24.8846 40.3373 31.0901 40.3373 34.9051 36.4873C38.7201 32.6373 38.7201 26.3748 34.9051 22.5248C31.0901 18.6748 24.8846 18.6748 21.0695 22.5248C17.2545 26.3748 17.2545 32.6373 21.0695 36.4873ZM131.209 119.712C127.394 115.862 121.189 115.862 117.374 119.712C113.559 123.562 113.559 129.825 117.374 133.675C121.189 137.525 127.394 137.525 131.209 133.675C135.024 129.825 135.024 123.562 131.209 119.712ZM107.13 109.375C110.945 105.525 110.945 99.2623 107.13 95.4123C103.315 91.5623 97.1094 91.5623 93.2944 95.4123C89.4794 99.2623 89.4794 105.525 93.2944 109.375C97.1094 113.225 103.315 113.225 107.13 109.375ZM93.2944 46.8123C89.4794 50.6623 89.4794 56.9248 93.2944 60.7748C97.1094 64.6248 103.315 64.6248 107.13 60.7748C110.945 56.9248 110.945 50.6623 107.13 46.8123C103.315 42.9623 97.1094 42.9623 93.2944 46.8123ZM83.0509 22.5123C79.2359 18.6623 73.0303 18.6623 69.2153 22.5123C65.4003 26.3623 65.4003 32.6248 69.2153 36.4748C73.0303 40.3248 79.2359 40.3248 83.0509 36.4748C86.8659 32.6248 86.8659 26.3623 83.0509 22.5123ZM45.1363 12.1748C48.9513 16.0248 55.1568 16.0248 58.9718 12.1748C61.9693 9.14981 62.601 4.6623 60.9041 0.999803C54.4384 2.2873 48.2576 4.3873 42.4732 7.1873C42.8448 9.0123 43.7242 10.7498 45.1363 12.1748ZM141.44 95.3998C137.625 99.2498 137.625 105.512 141.44 109.362C142.84 110.775 144.574 111.675 146.382 112.05C149.157 106.212 151.238 99.9748 152.514 93.4498C148.884 91.7373 144.438 92.3748 141.44 95.3998ZM117.361 71.0998C113.546 74.9498 113.546 81.2123 117.361 85.0623C121.176 88.9123 127.382 88.9123 131.197 85.0623C135.012 81.2123 135.012 74.9498 131.197 71.0998C127.382 67.2498 121.176 67.2498 117.361 71.0998ZM117.361 22.4998C113.546 26.3498 113.546 32.6123 117.361 36.4623C121.176 40.3123 127.382 40.3123 131.197 36.4623C135.012 32.6123 135.012 26.3498 131.197 22.4998C127.382 18.6498 121.176 18.6498 117.361 22.4998ZM93.2821 12.1623C97.097 16.0123 103.303 16.0123 107.118 12.1623C108.517 10.7498 109.409 8.99981 109.781 7.17481C103.996 4.37481 97.8155 2.2748 91.3498 0.987305C89.6528 4.6498 90.2845 9.1373 93.2821 12.1623ZM141.44 60.7623C144.438 63.7873 148.884 64.4248 152.514 62.7123C151.238 56.1873 149.157 49.9498 146.382 44.1123C144.574 44.4873 142.852 45.3748 141.44 46.7998C137.625 50.6498 137.625 56.9123 141.44 60.7623ZM34.8927 133.65C38.7077 129.8 38.7077 123.537 34.8927 119.687C31.0777 115.837 24.8722 115.837 21.0572 119.687C17.2422 123.537 17.2422 129.8 21.0572 133.65C24.8722 137.5 31.0777 137.5 34.8927 133.65ZM10.8136 95.3873C7.81614 92.3623 3.36944 91.7248 -0.259766 93.4373C1.01603 99.9623 3.09694 106.2 5.87149 112.037C7.67989 111.662 9.41398 110.775 10.8136 109.35C14.6286 105.5 14.6286 99.2373 10.8136 95.3873ZM58.9718 143.987C55.1568 140.137 48.9513 140.137 45.1363 143.987C43.7366 145.4 42.8448 147.15 42.4732 148.975C48.2576 151.775 54.4384 153.875 60.9041 155.162C62.601 151.5 61.9693 147.012 58.9718 143.987ZM58.9718 109.35C62.7868 105.5 62.7868 99.2373 58.9718 95.3873C55.1568 91.5373 48.9513 91.5373 45.1363 95.3873C41.3213 99.2373 41.3213 105.5 45.1363 109.35C48.9513 113.2 55.1568 113.2 58.9718 109.35ZM21.0572 71.0873C17.2422 74.9373 17.2422 81.1998 21.0572 85.0498C24.8722 88.8998 31.0777 88.8998 34.8927 85.0498C38.7077 81.1998 38.7077 74.9373 34.8927 71.0873C31.0777 67.2373 24.8722 67.2373 21.0572 71.0873ZM10.8136 60.7498C14.6286 56.8998 14.6286 50.6373 10.8136 46.7873C9.41398 45.3748 7.67989 44.4748 5.87149 44.0998C3.09694 49.9373 1.01603 56.1748 -0.259766 62.6998C3.36944 64.4123 7.81614 63.7748 10.8136 60.7498ZM107.118 143.975C103.303 140.125 97.097 140.125 93.2821 143.975C90.2845 147 89.6528 151.487 91.3498 155.15C97.8155 153.862 103.996 151.762 109.781 148.962C109.409 147.137 108.53 145.4 107.118 143.975ZM69.203 119.675C65.388 123.525 65.388 129.787 69.203 133.637C73.018 137.487 79.2235 137.487 83.0385 133.637C86.8535 129.787 86.8535 123.525 83.0385 119.675C79.2235 115.825 73.018 115.825 69.203 119.675Z" fill="#2E69FF"></path></g><defs><clipPath id="clip0_2318_5495"><rect width="436" height="155" fill="white"></rect></clipPath></defs></svg>
