<?xml version="1.0" encoding="UTF-8"?> <svg xmlns="http://www.w3.org/2000/svg" width="148" height="53" viewBox="0 0 148 53" fill="none"><g clip-path="url(#clip0_2318_5499)"><path d="M146.738 41.2514C146.528 41.3059 146.234 41.3688 145.851 41.4317C145.468 41.4946 145.027 41.5282 144.522 41.5282C143.85 41.5282 143.227 41.4233 142.66 41.2137C142.092 41.004 141.63 40.6014 141.281 40.0059C140.928 39.4104 140.755 38.5298 140.755 37.3682V19.7637H147.398V14.463H140.755V7.17463H134.15V14.463H120.876V10.2233C120.876 8.83528 121.196 8.06367 121.835 7.3298C122.474 6.59592 123.546 6.22689 125.047 6.22689C125.695 6.22689 126.25 6.28141 126.72 6.39463C127.191 6.50786 127.574 6.6127 127.868 6.70915L129.365 1.4127C128.915 1.24496 128.226 1.06044 127.301 0.854957C126.371 0.653667 125.266 0.548828 123.971 0.548828C122.213 0.548828 120.599 0.888506 119.123 1.56786C117.647 2.24722 116.466 3.27044 115.574 4.63754C114.683 6.00463 114.237 7.62754 114.237 9.6698V14.463H107.59V19.7637H114.237V46.703H120.876V19.7553H134.146V38.643C134.162 40.6182 134.541 42.2579 135.432 43.5621C136.324 44.8662 137.497 45.8266 138.951 46.4514C140.406 47.0763 141.996 47.374 143.724 47.3446C144.75 47.3153 145.607 47.2188 146.305 47.0721C147.003 46.9253 147.63 46.7617 148.054 46.6317L146.734 41.2514H146.738ZM79.4193 28.5701L74.172 27.3917C72.4313 26.9724 71.17 26.444 70.3879 25.8066C69.6101 25.1691 69.2191 24.3304 69.2191 23.2946C69.2191 22.0911 69.8035 21.1014 70.9681 20.3298C72.1328 19.5582 73.5792 19.1724 75.3072 19.1724C76.5854 19.1724 77.6534 19.3779 78.5111 19.793C79.3688 20.2082 80.05 20.7366 80.5545 21.3908C80.9329 21.8772 81.2314 22.3804 81.4501 22.9004C81.5258 23.0766 81.5888 23.2569 81.6477 23.4414H87.862C87.8116 23.1395 87.7527 22.825 87.6728 22.4937C87.5172 21.8395 87.3112 21.223 87.0632 20.6359C86.3274 18.883 85.209 17.4782 83.6659 16.325C81.6141 14.7901 78.8054 14.0227 75.2358 14.0227C72.7635 14.0227 70.5771 14.4253 68.6725 15.2304C66.7678 16.0356 65.2794 17.1595 64.203 18.6021C63.1309 20.0446 62.5927 21.7262 62.5927 23.6469C62.5927 25.9575 63.3159 27.8698 64.7622 29.3753C66.2086 30.8808 68.458 31.9711 71.5063 32.6421L76.9849 33.8414C78.5153 34.1769 79.6547 34.6801 80.3989 35.3427C81.1432 36.0095 81.5131 36.8398 81.5131 37.8337C81.5131 39.0372 80.9119 40.0562 79.7136 40.8908C78.5111 41.7253 76.9092 42.1404 74.8994 42.1404C73.0452 42.1404 71.54 41.7463 70.3795 40.9537C69.2191 40.1611 68.4496 38.9869 68.0712 37.4311H61.5752C61.5752 37.7246 61.592 38.0224 61.6425 38.3159C61.8947 39.7585 62.3741 41.0375 63.0846 42.153C63.791 43.2685 64.7286 44.2204 65.8891 45.0088C68.2142 46.5856 71.2288 47.374 74.9372 47.374C77.5777 47.374 79.8986 46.9421 81.9 46.0824C83.9013 45.2185 85.4696 44.0317 86.6091 42.5221C87.7485 41.0082 88.3161 39.2721 88.3161 37.3095C88.3161 35.0282 87.5803 33.1662 86.1129 31.7321C84.6455 30.2979 82.4087 29.2411 79.4025 28.5701H79.4193ZM94.9845 46.6904H101.628V14.4504H94.9845V46.6863V46.6904Z" fill="white"></path><path d="M98.2935 11.1419C100.495 11.1419 102.279 9.362 102.279 7.1664C102.279 4.9708 100.495 3.19092 98.2935 3.19092C96.0922 3.19092 94.3076 4.9708 94.3076 7.1664C94.3076 9.362 96.0922 11.1419 98.2935 11.1419Z" fill="#2E69FF"></path><path d="M28.1961 29.2581C26.9011 30.5498 24.7946 30.5498 23.4996 29.2581C22.2046 27.9665 22.2046 25.8656 23.4996 24.5739C24.7946 23.2823 26.9011 23.2823 28.1961 24.5739C29.4911 25.8656 29.4911 27.9665 28.1961 29.2581ZM15.326 16.4217C14.031 17.7133 14.031 19.8143 15.326 21.1059C16.621 22.3975 18.7275 22.3975 20.0225 21.1059C21.3175 19.8143 21.3175 17.7133 20.0225 16.4217C18.7275 15.1301 16.621 15.1301 15.326 16.4217ZM7.15234 12.9536C8.44734 14.2452 10.5538 14.2452 11.8488 12.9536C13.1438 11.662 13.1438 9.56104 11.8488 8.26943C10.5538 6.97782 8.44734 6.97782 7.15234 8.26943C5.85734 9.56104 5.85734 11.662 7.15234 12.9536ZM44.5392 40.8743C43.2442 39.5827 41.1377 39.5827 39.8427 40.8743C38.5477 42.1659 38.5477 44.2668 39.8427 45.5585C41.1377 46.8501 43.2442 46.8501 44.5392 45.5585C45.8342 44.2668 45.8342 42.1659 44.5392 40.8743ZM36.3655 37.4062C37.6605 36.1146 37.6605 34.0136 36.3655 32.722C35.0705 31.4304 32.964 31.4304 31.669 32.722C30.374 34.0136 30.374 36.1146 31.669 37.4062C32.964 38.6978 35.0705 38.6978 36.3655 37.4062ZM31.669 16.4175C30.374 17.7091 30.374 19.8101 31.669 21.1017C32.964 22.3933 35.0705 22.3933 36.3655 21.1017C37.6605 19.8101 37.6605 17.7091 36.3655 16.4175C35.0705 15.1259 32.964 15.1259 31.669 16.4175ZM28.1919 8.26523C26.8969 6.97362 24.7904 6.97362 23.4954 8.26523C22.2004 9.55685 22.2004 11.6578 23.4954 12.9494C24.7904 14.241 26.8969 14.241 28.1919 12.9494C29.4869 11.6578 29.4869 9.55685 28.1919 8.26523ZM15.3218 4.79717C16.6168 6.08878 18.7232 6.08878 20.0182 4.79717C21.0357 3.78233 21.2502 2.27685 20.6742 1.04814C18.4794 1.48007 16.3813 2.18459 14.4178 3.12394C14.5439 3.7362 14.8425 4.31911 15.3218 4.79717ZM48.0121 32.7178C46.7171 34.0094 46.7171 36.1104 48.0121 37.402C48.4872 37.8759 49.0759 38.1778 49.6897 38.3036C50.6315 36.3452 51.3379 34.2527 51.771 32.0636C50.539 31.4891 49.0296 31.703 48.0121 32.7178ZM39.8385 24.5656C38.5435 25.8572 38.5435 27.9581 39.8385 29.2498C41.1335 30.5414 43.24 30.5414 44.535 29.2498C45.83 27.9581 45.83 25.8572 44.535 24.5656C43.24 23.2739 41.1335 23.2739 39.8385 24.5656ZM39.8385 8.26104C38.5435 9.55266 38.5435 11.6536 39.8385 12.9452C41.1335 14.2368 43.24 14.2368 44.535 12.9452C45.83 11.6536 45.83 9.55266 44.535 8.26104C43.24 6.96943 41.1335 6.96943 39.8385 8.26104ZM31.6648 4.79298C32.9598 6.08459 35.0663 6.08459 36.3613 4.79298C36.8364 4.31911 37.1392 3.73201 37.2653 3.11975C35.3018 2.1804 33.2037 1.47588 31.0089 1.04395C30.4329 2.27266 30.6473 3.77814 31.6648 4.79298ZM48.0121 21.0975C49.0296 22.1123 50.539 22.3262 51.771 21.7517C51.3379 19.5627 50.6315 17.4701 49.6897 15.5117C49.0759 15.6375 48.4914 15.9352 48.0121 16.4133C46.7171 17.7049 46.7171 19.8059 48.0121 21.0975ZM11.8446 45.5501C13.1396 44.2585 13.1396 42.1575 11.8446 40.8659C10.5496 39.5743 8.44313 39.5743 7.14813 40.8659C5.85313 42.1575 5.85313 44.2585 7.14813 45.5501C8.44313 46.8417 10.5496 46.8417 11.8446 45.5501ZM3.67097 32.7136C2.65347 31.6988 1.14404 31.4849 -0.0878906 32.0594C0.345178 34.2485 1.05154 36.341 1.99336 38.2994C2.60722 38.1736 3.19586 37.8759 3.67097 37.3978C4.96597 36.1062 4.96597 34.0052 3.67097 32.7136ZM20.0182 49.0181C18.7232 47.7265 16.6168 47.7265 15.3218 49.0181C14.8467 49.492 14.5439 50.0791 14.4178 50.6914C16.3813 51.6307 18.4794 52.3352 20.6742 52.7672C21.2502 51.5385 21.0357 50.033 20.0182 49.0181ZM20.0182 37.3978C21.3132 36.1062 21.3132 34.0052 20.0182 32.7136C18.7232 31.422 16.6168 31.422 15.3218 32.7136C14.0268 34.0052 14.0268 36.1062 15.3218 37.3978C16.6168 38.6894 18.7232 38.6894 20.0182 37.3978ZM7.14813 24.5614C5.85313 25.853 5.85313 27.9539 7.14813 29.2456C8.44313 30.5372 10.5496 30.5372 11.8446 29.2456C13.1396 27.9539 13.1396 25.853 11.8446 24.5614C10.5496 23.2698 8.44313 23.2698 7.14813 24.5614ZM3.67097 21.0933C4.96597 19.8017 4.96597 17.7007 3.67097 16.4091C3.19586 15.9352 2.60722 15.6333 1.99336 15.5075C1.05154 17.4659 0.345178 19.5585 -0.0878906 21.7475C1.14404 22.322 2.65347 22.1081 3.67097 21.0933ZM36.3613 49.0139C35.0663 47.7223 32.9598 47.7223 31.6648 49.0139C30.6473 50.0288 30.4329 51.5343 31.0089 52.763C33.2037 52.331 35.3018 51.6265 37.2653 50.6872C37.1392 50.0749 36.8406 49.492 36.3613 49.0139ZM23.4912 40.8617C22.1962 42.1533 22.1962 44.2543 23.4912 45.5459C24.7862 46.8375 26.8927 46.8375 28.1877 45.5459C29.4827 44.2543 29.4827 42.1533 28.1877 40.8617C26.8927 39.5701 24.7862 39.5701 23.4912 40.8617Z" fill="#2E69FF"></path></g><defs><clipPath id="clip0_2318_5499"><rect width="148" height="52" fill="white" transform="translate(0 0.712402)"></rect></clipPath></defs></svg>
