<?xml version="1.0" encoding="UTF-8" standalone="no"?>
<!DOCTYPE svg PUBLIC "-//W3C//DTD SVG 1.1//EN"
 "http://www.w3.org/Graphics/SVG/1.1/DTD/svg11.dtd">
<!-- Generated by graphviz version 2.43.0 (0)
 -->
<!-- Title: dataset_event_timeline Pages: 1 -->
<svg width="1138pt" height="167pt"
 viewBox="0.00 0.00 1137.50 167.00" xmlns="http://www.w3.org/2000/svg" xmlns:xlink="http://www.w3.org/1999/xlink">
<g id="graph0" class="graph" transform="scale(1 1) rotate(0) translate(4 163)">
<title>dataset_event_timeline</title>
<polygon fill="white" stroke="transparent" points="-4,4 -4,-163 1133.5,-163 1133.5,4 -4,4"/>
<!-- e1 -->
<g id="node1" class="node">
<title>e1</title>
<ellipse fill="black" stroke="black" cx="193" cy="-133.5" rx="3.6" ry="3.6"/>
</g>
<!-- e2 -->
<g id="node2" class="node">
<title>e2</title>
<ellipse fill="black" stroke="black" cx="265" cy="-133.5" rx="3.6" ry="3.6"/>
</g>
<!-- e1&#45;&#45;e2 -->
<g id="edge2" class="edge">
<title>e1&#45;&#45;e2</title>
<path fill="none" stroke="lightgrey" d="M196.87,-133.5C209.37,-133.5 248.58,-133.5 261.11,-133.5"/>
</g>
<!-- e4 -->
<g id="node4" class="node">
<title>e4</title>
<ellipse fill="black" stroke="black" cx="409" cy="-133.5" rx="3.6" ry="3.6"/>
</g>
<!-- e2&#45;&#45;e4 -->
<g id="edge3" class="edge">
<title>e2&#45;&#45;e4</title>
<path fill="none" stroke="lightgrey" d="M268.85,-133.5C289.34,-133.5 385.32,-133.5 405.34,-133.5"/>
</g>
<!-- e3 -->
<g id="node3" class="node">
<title>e3</title>
<ellipse fill="black" stroke="black" cx="301" cy="-97.5" rx="3.6" ry="3.6"/>
</g>
<!-- e5 -->
<g id="node5" class="node">
<title>e5</title>
<ellipse fill="black" stroke="black" cx="481" cy="-97.5" rx="3.6" ry="3.6"/>
</g>
<!-- e3&#45;&#45;e5 -->
<g id="edge8" class="edge">
<title>e3&#45;&#45;e5</title>
<path fill="none" stroke="lightgrey" d="M304.76,-97.5C328.18,-97.5 453.9,-97.5 477.26,-97.5"/>
</g>
<!-- e6 -->
<g id="node6" class="node">
<title>e6</title>
<ellipse fill="black" stroke="black" cx="553" cy="-133.5" rx="3.6" ry="3.6"/>
</g>
<!-- e4&#45;&#45;e6 -->
<g id="edge4" class="edge">
<title>e4&#45;&#45;e6</title>
<path fill="none" stroke="lightgrey" d="M412.85,-133.5C433.34,-133.5 529.32,-133.5 549.34,-133.5"/>
</g>
<!-- e8 -->
<g id="node9" class="node">
<title>e8</title>
<ellipse fill="black" stroke="black" cx="697" cy="-97.5" rx="3.6" ry="3.6"/>
</g>
<!-- e5&#45;&#45;e8 -->
<g id="edge9" class="edge">
<title>e5&#45;&#45;e8</title>
<path fill="none" stroke="lightgrey" d="M484.75,-97.5C510.97,-97.5 666.59,-97.5 693.15,-97.5"/>
</g>
<!-- e13 -->
<g id="node14" class="node">
<title>e13</title>
<ellipse fill="black" stroke="black" cx="1057" cy="-133.5" rx="3.6" ry="3.6"/>
</g>
<!-- e6&#45;&#45;e13 -->
<g id="edge5" class="edge">
<title>e6&#45;&#45;e13</title>
<path fill="none" stroke="lightgrey" d="M556.77,-133.5C600.46,-133.5 1010.24,-133.5 1053.34,-133.5"/>
</g>
<!-- e7 -->
<g id="node7" class="node">
<title>e7</title>
<ellipse fill="black" stroke="black" cx="625" cy="-61.5" rx="3.6" ry="3.6"/>
</g>
<!-- e9 -->
<g id="node10" class="node">
<title>e9</title>
<ellipse fill="black" stroke="black" cx="769" cy="-61.5" rx="3.6" ry="3.6"/>
</g>
<!-- e7&#45;&#45;e9 -->
<g id="edge14" class="edge">
<title>e7&#45;&#45;e9</title>
<path fill="none" stroke="lightgrey" d="M628.85,-61.5C649.34,-61.5 745.32,-61.5 765.34,-61.5"/>
</g>
<!-- r7 -->
<g id="node8" class="node">
<title>r7</title>
<polygon fill="none" stroke="black" points="634.43,-27.62 627.23,-27.62 625,-34.5 622.77,-27.62 615.57,-27.62 621.4,-23.38 619.17,-16.5 625,-20.75 630.83,-16.5 628.6,-23.38 634.43,-27.62"/>
</g>
<!-- e10 -->
<g id="node11" class="node">
<title>e10</title>
<ellipse fill="black" stroke="black" cx="841" cy="-97.5" rx="3.6" ry="3.6"/>
</g>
<!-- e8&#45;&#45;e10 -->
<g id="edge10" class="edge">
<title>e8&#45;&#45;e10</title>
<path fill="none" stroke="lightgrey" d="M700.85,-97.5C721.34,-97.5 817.32,-97.5 837.34,-97.5"/>
</g>
<!-- e11 -->
<g id="node12" class="node">
<title>e11</title>
<ellipse fill="black" stroke="black" cx="913" cy="-61.5" rx="3.6" ry="3.6"/>
</g>
<!-- e9&#45;&#45;e11 -->
<g id="edge15" class="edge">
<title>e9&#45;&#45;e11</title>
<path fill="none" stroke="lightgrey" d="M772.85,-61.5C793.34,-61.5 889.32,-61.5 909.34,-61.5"/>
</g>
<!-- e12 -->
<g id="node13" class="node">
<title>e12</title>
<ellipse fill="black" stroke="black" cx="985" cy="-97.5" rx="3.6" ry="3.6"/>
</g>
<!-- e10&#45;&#45;e12 -->
<g id="edge11" class="edge">
<title>e10&#45;&#45;e12</title>
<path fill="none" stroke="lightgrey" d="M844.85,-97.5C865.34,-97.5 961.32,-97.5 981.34,-97.5"/>
</g>
<!-- end_ds3 -->
<g id="node18" class="node">
<title>end_ds3</title>
</g>
<!-- e11&#45;&#45;end_ds3 -->
<g id="edge16" class="edge">
<title>e11&#45;&#45;end_ds3</title>
<path fill="none" stroke="lightgrey" d="M916.75,-61.5C944.54,-61.5 1117.68,-61.5 1128.47,-61.5"/>
</g>
<!-- end_ds2 -->
<g id="node17" class="node">
<title>end_ds2</title>
</g>
<!-- e12&#45;&#45;end_ds2 -->
<g id="edge12" class="edge">
<title>e12&#45;&#45;end_ds2</title>
<path fill="none" stroke="lightgrey" d="M988.85,-97.5C1010.68,-97.5 1118.22,-97.5 1128.25,-97.5"/>
</g>
<!-- end_ds1 -->
<g id="node16" class="node">
<title>end_ds1</title>
</g>
<!-- e13&#45;&#45;end_ds1 -->
<g id="edge6" class="edge">
<title>e13&#45;&#45;end_ds1</title>
<path fill="none" stroke="lightgrey" d="M1060.87,-133.5C1074.89,-133.5 1122.5,-133.5 1128.4,-133.5"/>
</g>
<!-- r13 -->
<g id="node15" class="node">
<title>r13</title>
<polygon fill="none" stroke="black" points="1066.43,-27.62 1059.23,-27.62 1057,-34.5 1054.77,-27.62 1047.57,-27.62 1053.4,-23.38 1051.17,-16.5 1057,-20.75 1062.83,-16.5 1060.6,-23.38 1066.43,-27.62"/>
</g>
<!-- example_dataset_1 -->
<g id="node19" class="node">
<title>example_dataset_1</title>
<text text-anchor="middle" x="85" y="-129.8" font-family="roboto,sans-serif" font-size="14.00">example_dataset_1</text>
</g>
<!-- example_dataset_1&#45;&#45;e1 -->
<g id="edge1" class="edge">
<title>example_dataset_1&#45;&#45;e1</title>
<path fill="none" stroke="lightgrey" d="M170.1,-133.5C178.46,-133.5 185.32,-133.5 189.28,-133.5"/>
</g>
<!-- example_dataset_2 -->
<g id="node20" class="node">
<title>example_dataset_2</title>
<text text-anchor="middle" x="85" y="-93.8" font-family="roboto,sans-serif" font-size="14.00">example_dataset_2</text>
</g>
<!-- example_dataset_2&#45;&#45;e3 -->
<g id="edge7" class="edge">
<title>example_dataset_2&#45;&#45;e3</title>
<path fill="none" stroke="lightgrey" d="M170.06,-97.5C222,-97.5 281.37,-97.5 297.04,-97.5"/>
</g>
<!-- example_dataset_3 -->
<g id="node21" class="node">
<title>example_dataset_3</title>
<text text-anchor="middle" x="85" y="-57.8" font-family="roboto,sans-serif" font-size="14.00">example_dataset_3</text>
</g>
<!-- example_dataset_3&#45;&#45;e7 -->
<g id="edge13" class="edge">
<title>example_dataset_3&#45;&#45;e7</title>
<path fill="none" stroke="lightgrey" d="M170.27,-61.5C312.33,-61.5 585.48,-61.5 621.13,-61.5"/>
</g>
<!-- dag_runs -->
<g id="node22" class="node">
<title>dag_runs</title>
<text text-anchor="middle" x="85" y="-21.8" font-family="roboto,sans-serif" font-size="14.00">DagRuns created</text>
</g>
</g>
</svg>
