<svg xmlns="http://www.w3.org/2000/svg" width="423.286" height="331.153" viewBox="0 0 111.994 87.618">
    <path fill="#00548e" d="M109.72 25.233H94.674c-.98 0-1.774.794-1.774 1.775v7.412c-4.858 0-9.303-3.803-8.767-10.122.402-4.716 4.202-8.015 8.887-8.015 2.832 0 5.185 1.016 7.299 2.738.73.592 1.813.434 2.363-.332l6.7-9.33a1.77 1.77 0 00-.283-2.386C105.261 3.742 98.858.5 91.284.5 78.697.5 68.802 7.7 65.785 17.955l-2.974-8.893a11.429 11.429 0 00-10.84-7.807h-8.7c1.602 3.926 1.584 5.983 2.515 12.718.837 6.018 3.888 11.236 3.888 11.236s-3.051 5.217-3.888 11.236c-.931 6.73-.913 8.79-2.515 12.717h8.7c4.917 0 9.28-3.143 10.84-7.807l3.03-9.066c3.193 11.345 13.59 17.632 25.767 17.632 7.603 0 13.706-2.29 18.179-5.405a4.028 4.028 0 001.707-3.312V27.008c0-.981-.793-1.775-1.774-1.775M21.97 36.177h-3.347v-6.971h3.347c2.667 0 4.032 1.435 4.032 3.485s-1.365 3.486-4.032 3.486m-3.347-22.155h2.8c2.597 0 3.828 1.231 3.828 3.351 0 2.117-1.298 3.348-3.828 3.348h-2.8zm18.806 10.195c3.965-2.183 5.605-5.672 5.605-9.701 0-9.024-7.792-13.261-19.271-13.261H2.278A1.78 1.78 0 00.5 3.033v44.351c0 .984.797 1.778 1.778 1.778h22.641c11.621 0 19.206-4.713 19.206-14.076 0-4.65-2.802-8.816-6.696-10.869m34.043 42.598c-3.542-2.07-8.456-2.847-10.033-3.277-1.136-.314-1.94-.812-1.8-1.514.124-.61.805-.962 2.04-.962 2.357 0 4.663 1.047 6.078 1.834.734.405 1.655.19 2.138-.49l3.517-4.94a1.772 1.772 0 00-.511-2.543c-3.31-2.007-7.409-3.672-12.633-3.672-7.966 0-15.018 4.067-15.018 11.606 0 2.402 1.147 5.112 3.824 7.214 3.27 2.572 7.024 3.175 9.758 3.888 1.746.455 2.081 1.112 2.018 1.644-.056.515-.667 1.08-1.902 1.08-2.345 0-5.492-1.384-7.863-2.844a1.648 1.648 0 00-2.205.455l-3.852 5.426a1.781 1.781 0 00.406 2.466c4.624 3.425 9.44 4.932 15.469 4.932 8.724 0 15.285-4.957 15.285-11.956 0-3.52-1.277-6.336-4.716-8.347M41.736 51.794l-10.032.004a1.782 1.782 0 00-1.778 1.778v31.22c0 .981.796 1.779 1.778 1.779H41.74a1.78 1.78 0 001.778-1.778V53.572a1.78 1.78 0 00-1.782-1.778m-15.12 0H2.278A1.78 1.78 0 00.5 53.572v31.224c0 .981.797 1.778 1.778 1.778h10.047c.984 0 1.778-.797 1.778-1.778v-9.352h9.465a1.78 1.78 0 001.778-1.778v-6.265a1.78 1.78 0 00-1.778-1.778h-9.465v-2.837h12.513c.98 0 1.778-.793 1.778-1.778v-7.436a1.78 1.78 0 00-1.778-1.778m83.1 0H99.123a1.78 1.78 0 00-1.778 1.778v9.454h-5.846v-9.454c0-.98-.793-1.778-1.778-1.778H79.127a1.78 1.78 0 00-1.778 1.778v31.224c0 .981.798 1.778 1.778 1.778h10.594c.985 0 1.778-.797 1.778-1.778v-9.454h5.846v9.454c0 .981.797 1.778 1.778 1.778h10.593c.985 0 1.778-.797 1.778-1.778V53.572c0-.98-.793-1.778-1.778-1.778"/>
</svg>
