<svg clip-rule="evenodd" fill-rule="evenodd" height="727" image-rendering="optimizeQuality" shape-rendering="geometricPrecision" text-rendering="geometricPrecision" viewBox="-51.63 -101.01 6373.52 1939.89" width="2500" xmlns="http://www.w3.org/2000/svg">
    <path d="m1083.81 487.91h323.77v134.84c60.45-104.42 173.37-174.67 302.7-174.67 193.04 0 349.52 156.49 349.52 349.52v443.82c0 108.17-88.5 196.68-196.68 196.68h-127.09v-549.02c0-90.7-73.53-164.23-164.23-164.23s-164.23 73.53-164.23 164.23v352.35c0 108.17-88.5 196.68-196.68 196.68h-127.09v-950.19zm4678.02-352.99v-87.87h19.68l23.47 62.2c2.17 5.79 3.74 10.12 4.73 13.01 1.13-3.19 2.91-7.89 5.31-14.09l23.88-61.12h17.57v87.87h-12.61v-73.51l-28.96 73.51h-11.82l-28.64-74.86v74.86zm-59.15 0v-77.56h-32.71v-10.31h78.58v10.31h-32.71v77.56zm-5560.49 602.55c-39.52-37.37-69.14-79.9-86.01-127.24-107.81-302.57 163.98-711.24 673.72-587.55 76.73 18.62 156.01 48.99 234.13 92.21-123.61 236.66-183.82 221.15-293.56 209.75-50.37-5.23-104.67-24.72-164.63-2.88-122.59 44.66-149.04 198.67 90.5 247.19 151.71 37.54 339.3 138.68 395.26 295.75 107.81 302.57-163.98 711.24-673.72 587.55-113.73-27.6-220.12-78.51-317.89-141.81l136.07-276.04c98.98 85.81 272.65 171.23 405.89 122.7 122.57-44.64 149.04-218.33-90.51-266.86-141.04-34.9-242.29-79.44-309.26-152.78zm5855.93-687.96h323.77l-187.19 712.85c-22.72 86.54-112.12 157.34-198.66 157.34h-166.43zm-109.93 1425.42c-120.79 0-218.71-97.92-218.71-218.71s97.92-218.71 218.71-218.71 218.71 97.92 218.71 218.71-97.92 218.71-218.71 218.71zm-1382-987.03h323.77v97.02c82.8-84.92 193.63-136.85 315.44-136.85 256.33 0 464.13 229.87 464.13 513.43s-207.8 513.43-464.13 513.43c-121.81 0-232.64-51.94-315.44-136.85v304.12c0 108.17-88.5 196.68-196.68 196.68h-127.09v-1350.97zm543.27 690.71c-121.23 0-219.5-97.21-219.5-217.11 0-119.91 98.27-217.11 219.5-217.11s219.5 97.21 219.5 217.11c0 119.91-98.27 217.11-219.5 217.11zm-1705.87-690.71h323.77v97.02c82.8-84.92 193.63-136.85 315.44-136.85 256.33 0 464.13 229.87 464.13 513.43s-207.8 513.43-464.13 513.43c-121.81 0-232.64-51.94-315.44-136.85v304.12c0 108.17-88.5 196.68-196.68 196.68h-127.09v-1350.97zm543.27 690.71c-121.23 0-219.5-97.21-219.5-217.11 0-119.91 98.27-217.11 219.5-217.11s219.5 97.21 219.5 217.11c0 119.91-98.27 217.11-219.5 217.11zm-979.26-690.71h323.77v753.51c0 108.17-88.5 196.68-196.68 196.68h-127.09v-100.01c-82.8 84.92-193.63 136.85-315.44 136.85-256.34 0-464.13-229.87-464.13-513.43s207.8-513.43 464.13-513.43c121.81 0 232.64 51.94 315.44 136.85zm-219.5 690.71c121.23 0 219.5-97.21 219.5-217.11 0-119.91-98.27-217.11-219.5-217.11s-219.5 97.21-219.5 217.11c0 119.91 98.27 217.11 219.5 217.11z" fill="#06df6f"/>
</svg>
