<?xml version="1.0" encoding="UTF-8" standalone="no"?>
<!DOCTYPE svg PUBLIC "-//W3C//DTD SVG 1.1//EN"
 "http://www.w3.org/Graphics/SVG/1.1/DTD/svg11.dtd">
<!-- Generated by graphviz version 2.43.0 (0)
 -->
<!-- Title: asset_event_timeline Pages: 1 -->
<svg width="1130pt" height="167pt"
 viewBox="0.00 0.00 1130.00 167.00" xmlns="http://www.w3.org/2000/svg" xmlns:xlink="http://www.w3.org/1999/xlink">
<g id="graph0" class="graph" transform="scale(1 1) rotate(0) translate(4 163)">
<title>asset_event_timeline</title>
<polygon fill="white" stroke="transparent" points="-4,4 -4,-163 1126,-163 1126,4 -4,4"/>
<!-- e1 -->
<g id="node1" class="node">
<title>e1</title>
<ellipse fill="black" stroke="black" cx="185.5" cy="-133.5" rx="3.6" ry="3.6"/>
</g>
<!-- e2 -->
<g id="node2" class="node">
<title>e2</title>
<ellipse fill="black" stroke="black" cx="257.5" cy="-133.5" rx="3.6" ry="3.6"/>
</g>
<!-- e1&#45;&#45;e2 -->
<g id="edge2" class="edge">
<title>e1&#45;&#45;e2</title>
<path fill="none" stroke="lightgrey" d="M189.37,-133.5C201.87,-133.5 241.08,-133.5 253.61,-133.5"/>
</g>
<!-- e4 -->
<g id="node4" class="node">
<title>e4</title>
<ellipse fill="black" stroke="black" cx="401.5" cy="-133.5" rx="3.6" ry="3.6"/>
</g>
<!-- e2&#45;&#45;e4 -->
<g id="edge3" class="edge">
<title>e2&#45;&#45;e4</title>
<path fill="none" stroke="lightgrey" d="M261.35,-133.5C281.84,-133.5 377.82,-133.5 397.84,-133.5"/>
</g>
<!-- e3 -->
<g id="node3" class="node">
<title>e3</title>
<ellipse fill="black" stroke="black" cx="293.5" cy="-97.5" rx="3.6" ry="3.6"/>
</g>
<!-- e5 -->
<g id="node5" class="node">
<title>e5</title>
<ellipse fill="black" stroke="black" cx="473.5" cy="-97.5" rx="3.6" ry="3.6"/>
</g>
<!-- e3&#45;&#45;e5 -->
<g id="edge8" class="edge">
<title>e3&#45;&#45;e5</title>
<path fill="none" stroke="lightgrey" d="M297.26,-97.5C320.68,-97.5 446.4,-97.5 469.76,-97.5"/>
</g>
<!-- e6 -->
<g id="node6" class="node">
<title>e6</title>
<ellipse fill="black" stroke="black" cx="545.5" cy="-133.5" rx="3.6" ry="3.6"/>
</g>
<!-- e4&#45;&#45;e6 -->
<g id="edge4" class="edge">
<title>e4&#45;&#45;e6</title>
<path fill="none" stroke="lightgrey" d="M405.35,-133.5C425.84,-133.5 521.82,-133.5 541.84,-133.5"/>
</g>
<!-- e8 -->
<g id="node9" class="node">
<title>e8</title>
<ellipse fill="black" stroke="black" cx="689.5" cy="-97.5" rx="3.6" ry="3.6"/>
</g>
<!-- e5&#45;&#45;e8 -->
<g id="edge9" class="edge">
<title>e5&#45;&#45;e8</title>
<path fill="none" stroke="lightgrey" d="M477.25,-97.5C503.47,-97.5 659.09,-97.5 685.65,-97.5"/>
</g>
<!-- e13 -->
<g id="node14" class="node">
<title>e13</title>
<ellipse fill="black" stroke="black" cx="1049.5" cy="-133.5" rx="3.6" ry="3.6"/>
</g>
<!-- e6&#45;&#45;e13 -->
<g id="edge5" class="edge">
<title>e6&#45;&#45;e13</title>
<path fill="none" stroke="lightgrey" d="M549.27,-133.5C592.96,-133.5 1002.74,-133.5 1045.84,-133.5"/>
</g>
<!-- e7 -->
<g id="node7" class="node">
<title>e7</title>
<ellipse fill="black" stroke="black" cx="617.5" cy="-61.5" rx="3.6" ry="3.6"/>
</g>
<!-- e9 -->
<g id="node10" class="node">
<title>e9</title>
<ellipse fill="black" stroke="black" cx="761.5" cy="-61.5" rx="3.6" ry="3.6"/>
</g>
<!-- e7&#45;&#45;e9 -->
<g id="edge14" class="edge">
<title>e7&#45;&#45;e9</title>
<path fill="none" stroke="lightgrey" d="M621.35,-61.5C641.84,-61.5 737.82,-61.5 757.84,-61.5"/>
</g>
<!-- r7 -->
<g id="node8" class="node">
<title>r7</title>
<polygon fill="none" stroke="black" points="626.93,-27.62 619.73,-27.62 617.5,-34.5 615.27,-27.62 608.07,-27.62 613.9,-23.38 611.67,-16.5 617.5,-20.75 623.33,-16.5 621.1,-23.38 626.93,-27.62"/>
</g>
<!-- e10 -->
<g id="node11" class="node">
<title>e10</title>
<ellipse fill="black" stroke="black" cx="833.5" cy="-97.5" rx="3.6" ry="3.6"/>
</g>
<!-- e8&#45;&#45;e10 -->
<g id="edge10" class="edge">
<title>e8&#45;&#45;e10</title>
<path fill="none" stroke="lightgrey" d="M693.35,-97.5C713.84,-97.5 809.82,-97.5 829.84,-97.5"/>
</g>
<!-- e11 -->
<g id="node12" class="node">
<title>e11</title>
<ellipse fill="black" stroke="black" cx="905.5" cy="-61.5" rx="3.6" ry="3.6"/>
</g>
<!-- e9&#45;&#45;e11 -->
<g id="edge15" class="edge">
<title>e9&#45;&#45;e11</title>
<path fill="none" stroke="lightgrey" d="M765.35,-61.5C785.84,-61.5 881.82,-61.5 901.84,-61.5"/>
</g>
<!-- e12 -->
<g id="node13" class="node">
<title>e12</title>
<ellipse fill="black" stroke="black" cx="977.5" cy="-97.5" rx="3.6" ry="3.6"/>
</g>
<!-- e10&#45;&#45;e12 -->
<g id="edge11" class="edge">
<title>e10&#45;&#45;e12</title>
<path fill="none" stroke="lightgrey" d="M837.35,-97.5C857.84,-97.5 953.82,-97.5 973.84,-97.5"/>
</g>
<!-- end_ds3 -->
<g id="node18" class="node">
<title>end_ds3</title>
</g>
<!-- e11&#45;&#45;end_ds3 -->
<g id="edge16" class="edge">
<title>e11&#45;&#45;end_ds3</title>
<path fill="none" stroke="lightgrey" d="M909.25,-61.5C937.04,-61.5 1110.18,-61.5 1120.97,-61.5"/>
</g>
<!-- end_ds2 -->
<g id="node17" class="node">
<title>end_ds2</title>
</g>
<!-- e12&#45;&#45;end_ds2 -->
<g id="edge12" class="edge">
<title>e12&#45;&#45;end_ds2</title>
<path fill="none" stroke="lightgrey" d="M981.35,-97.5C1003.18,-97.5 1110.72,-97.5 1120.75,-97.5"/>
</g>
<!-- end_ds1 -->
<g id="node16" class="node">
<title>end_ds1</title>
</g>
<!-- e13&#45;&#45;end_ds1 -->
<g id="edge6" class="edge">
<title>e13&#45;&#45;end_ds1</title>
<path fill="none" stroke="lightgrey" d="M1053.37,-133.5C1067.39,-133.5 1115,-133.5 1120.9,-133.5"/>
</g>
<!-- r13 -->
<g id="node15" class="node">
<title>r13</title>
<polygon fill="none" stroke="black" points="1058.93,-27.62 1051.73,-27.62 1049.5,-34.5 1047.27,-27.62 1040.07,-27.62 1045.9,-23.38 1043.67,-16.5 1049.5,-20.75 1055.33,-16.5 1053.1,-23.38 1058.93,-27.62"/>
</g>
<!-- example_asset_1 -->
<g id="node19" class="node">
<title>example_asset_1</title>
<text text-anchor="middle" x="77.5" y="-129.8" font-family="roboto,sans-serif" font-size="14.00">example_asset_1</text>
</g>
<!-- example_asset_1&#45;&#45;e1 -->
<g id="edge1" class="edge">
<title>example_asset_1&#45;&#45;e1</title>
<path fill="none" stroke="lightgrey" d="M155.13,-133.5C166.67,-133.5 176.41,-133.5 181.56,-133.5"/>
</g>
<!-- example_asset_2 -->
<g id="node20" class="node">
<title>example_asset_2</title>
<text text-anchor="middle" x="77.5" y="-93.8" font-family="roboto,sans-serif" font-size="14.00">example_asset_2</text>
</g>
<!-- example_asset_2&#45;&#45;e3 -->
<g id="edge7" class="edge">
<title>example_asset_2&#45;&#45;e3</title>
<path fill="none" stroke="lightgrey" d="M155.18,-97.5C208.88,-97.5 273.46,-97.5 289.67,-97.5"/>
</g>
<!-- example_asset_3 -->
<g id="node21" class="node">
<title>example_asset_3</title>
<text text-anchor="middle" x="77.5" y="-57.8" font-family="roboto,sans-serif" font-size="14.00">example_asset_3</text>
</g>
<!-- example_asset_3&#45;&#45;e7 -->
<g id="edge13" class="edge">
<title>example_asset_3&#45;&#45;e7</title>
<path fill="none" stroke="lightgrey" d="M155.16,-61.5C294.66,-61.5 576.66,-61.5 613.5,-61.5"/>
</g>
<!-- dag_runs -->
<g id="node22" class="node">
<title>dag_runs</title>
<text text-anchor="middle" x="77.5" y="-21.8" font-family="roboto,sans-serif" font-size="14.00">DagRuns created</text>
</g>
</g>
</svg>
