<svg xmlns="http://www.w3.org/2000/svg" width="60" height="55.876" viewBox="0 0 60 55.876">
    <g id="Group_1432" data-name="Group 1432" transform="translate(1047.912 -646.062)">
        <g id="Group_1428" data-name="Group 1428">
            <path id="Path_1218" d="M-1002.844 701.938a.607.607 0 0 1-.432-.181l-11.713-11.849h-29.177a3.75 3.75 0 0 1-3.746-3.747v-36.352a3.75 3.75 0 0 1 3.746-3.747h52.507a3.751 3.751 0 0 1 3.747 3.747v36.352a3.751 3.751 0 0 1-3.747 3.747h-10.577v11.422a.608.608 0 0 1-.377.562.6.6 0 0 1-.231.046zm-41.322-54.66a2.533 2.533 0 0 0-2.53 2.531v36.352a2.533 2.533 0 0 0 2.53 2.53h29.431a.613.613 0 0 1 .433.181l10.85 10.978V689.3a.609.609 0 0 1 .608-.609h11.185a2.534 2.534 0 0 0 2.531-2.53v-36.352a2.534 2.534 0 0 0-2.531-2.531z" fill="#017cee" data-name="Path 1218"/>
        </g>
        <g id="Group_1429" data-name="Group 1429">
            <path id="Path_1219" d="M-998.821 658.262H-1037a.608.608 0 0 1-.608-.608.608.608 0 0 1 .608-.608h38.183a.609.609 0 0 1 .609.608.609.609 0 0 1-.613.608z" fill="#017cee" data-name="Path 1219"/>
        </g>
        <g id="Group_1430" data-name="Group 1430">
            <path id="Path_1220" d="M-998.821 667.678H-1037a.608.608 0 0 1-.608-.608.609.609 0 0 1 .608-.609h38.183a.609.609 0 0 1 .609.609.609.609 0 0 1-.613.608z" fill="#017cee" data-name="Path 1220"/>
        </g>
        <g id="Group_1431" data-name="Group 1431">
            <path id="Path_1221" d="M-1008.759 677.093H-1037a.609.609 0 0 1-.608-.609.608.608 0 0 1 .608-.608h28.245a.608.608 0 0 1 .608.608.609.609 0 0 1-.612.609z" fill="#017cee" data-name="Path 1221"/>
        </g>
    </g>
</svg>
