<svg xmlns="http://www.w3.org/2000/svg" width="54.425" height="60" viewBox="0 0 54.425 60">
    <g id="Group_1427" data-name="Group 1427" transform="translate(1175.26 -644)">
        <g id="Group_1418" data-name="Group 1418">
            <path id="Path_1210" d="M-1148.047 704a16.589 16.589 0 0 1-16.571-16.571v-18.75a.608.608 0 0 1 .608-.608h31.925a.609.609 0 0 1 .609.608v18.75A16.59 16.59 0 0 1-1148.047 704zm-15.355-34.713v18.142a15.372 15.372 0 0 0 15.355 15.355 15.372 15.372 0 0 0 15.354-15.355v-18.142z" fill="#017cee" data-name="Path 1210"/>
        </g>
        <g id="Group_1419" data-name="Group 1419">
            <path id="Path_1211" d="M-1135.784 668.679H-1137V665.2a8.054 8.054 0 0 0-8.045-8.044h-6.005a8.054 8.054 0 0 0-8.045 8.044v3.475h-1.216V665.2a9.272 9.272 0 0 1 9.261-9.261h6.005a9.271 9.271 0 0 1 9.261 9.261z" fill="#017cee" data-name="Path 1211"/>
        </g>
        <g id="Group_1420" data-name="Group 1420">
            <path id="Path_1212" d="M-1143.993 657.252a.608.608 0 0 1-.608-.608A12.657 12.657 0 0 1-1131.958 644a.608.608 0 0 1 .608.608.608.608 0 0 1-.608.608 11.441 11.441 0 0 0-11.427 11.428.608.608 0 0 1-.608.608z" fill="#017cee" data-name="Path 1212"/>
        </g>
        <g id="Group_1421" data-name="Group 1421">
            <path id="Path_1213" d="M-1151.975 657.252a.608.608 0 0 1-.608-.608 11.441 11.441 0 0 0-11.427-11.428.608.608 0 0 1-.608-.608.608.608 0 0 1 .608-.608 12.658 12.658 0 0 1 12.643 12.644.608.608 0 0 1-.608.608z" fill="#017cee" data-name="Path 1213"/>
        </g>
        <g id="Group_1422" data-name="Group 1422">
            <path id="Rectangle_473" d="M0 0h1.216v34.713H0z" fill="#017cee" data-name="Rectangle 473" transform="translate(-1148.656 668.679)"/>
        </g>
        <g id="Group_1423" data-name="Group 1423">
            <path id="Path_1214" d="M-1164.01 678.409h-11.25v-12.517a.608.608 0 0 1 .608-.608.608.608 0 0 1 .608.608v11.3h10.034a.608.608 0 0 1 .608.608.608.608 0 0 1-.608.609z" fill="#017cee" data-name="Path 1214"/>
        </g>
        <g id="Group_1424" data-name="Group 1424">
            <path id="Path_1215" d="M-1174.652 700.959a.608.608 0 0 1-.608-.608v-12.517h11.25a.609.609 0 0 1 .608.609.608.608 0 0 1-.608.608h-10.034v11.3a.608.608 0 0 1-.608.608z" fill="#017cee" data-name="Path 1215"/>
        </g>
        <g id="Group_1425" data-name="Group 1425">
            <path id="Path_1216" d="M-1120.835 678.409h-11.25a.608.608 0 0 1-.608-.608.608.608 0 0 1 .608-.608h10.034v-11.3a.608.608 0 0 1 .608-.608.608.608 0 0 1 .608.608z" fill="#017cee" data-name="Path 1216"/>
        </g>
        <g id="Group_1426" data-name="Group 1426">
            <path id="Path_1217" d="M-1121.443 700.959a.608.608 0 0 1-.608-.608v-11.3h-10.034a.609.609 0 0 1-.608-.608.609.609 0 0 1 .608-.609h11.25v12.517a.608.608 0 0 1-.608.608z" fill="#017cee" data-name="Path 1217"/>
        </g>
    </g>
</svg>
