<svg xmlns="http://www.w3.org/2000/svg" width="60" height="43.846" viewBox="0 0 60 43.846">
    <g id="Group_1452" data-name="Group 1452" transform="translate(918.588 -652.077)">
        <g id="Group_1450" data-name="Group 1450">
            <g id="Group_1445" data-name="Group 1445">
                <path id="Path_1230" d="M-879.39 670.854a3.615 3.615 0 0 1-3.61-3.611 3.615 3.615 0 0 1 3.611-3.611 3.615 3.615 0 0 1 3.611 3.611 3.615 3.615 0 0 1-3.612 3.611zm0-6.006a2.4 2.4 0 0 0-2.395 2.395 2.4 2.4 0 0 0 2.395 2.4 2.4 2.4 0 0 0 2.4-2.4 2.4 2.4 0 0 0-2.4-2.395z" fill="#017cee" data-name="Path 1230"/>
            </g>
            <g id="Group_1446" data-name="Group 1446">
                <path id="Path_1231" d="M-898.459 670.854a3.615 3.615 0 0 1-3.611-3.611 3.615 3.615 0 0 1 3.611-3.611 3.615 3.615 0 0 1 3.611 3.611 3.615 3.615 0 0 1-3.611 3.611zm0-6.006a2.4 2.4 0 0 0-2.4 2.395 2.4 2.4 0 0 0 2.4 2.4 2.4 2.4 0 0 0 2.395-2.4 2.4 2.4 0 0 0-2.395-2.395z" fill="#017cee" data-name="Path 1231"/>
            </g>
            <g id="Group_1447" data-name="Group 1447">
                <path id="Path_1232" d="M-879.39 684.368a3.615 3.615 0 0 1-3.61-3.611 3.615 3.615 0 0 1 3.611-3.611 3.615 3.615 0 0 1 3.611 3.611 3.615 3.615 0 0 1-3.612 3.611zm0-6.006a2.4 2.4 0 0 0-2.395 2.4 2.4 2.4 0 0 0 2.395 2.395 2.4 2.4 0 0 0 2.4-2.395 2.4 2.4 0 0 0-2.4-2.4z" fill="#017cee" data-name="Path 1232"/>
            </g>
            <g id="Group_1448" data-name="Group 1448">
                <path id="Rectangle_474" d="M0 0h13.063v1.216H0z" fill="#017cee" data-name="Rectangle 474" transform="translate(-895.456 666.635)"/>
            </g>
            <g id="Group_1449" data-name="Group 1449">
                <path id="Path_1233" d="M-882.093 681.365c-4.979 0-6.534-3.988-7.9-7.507-1.256-3.223-2.341-6.007-5.608-6.007v-1.216c4.1 0 5.442 3.448 6.741 6.782 1.349 3.462 2.624 6.732 6.772 6.732z" fill="#017cee" data-name="Path 1233"/>
            </g>
        </g>
        <g id="Group_1451" data-name="Group 1451">
            <path id="Path_1234" d="M-861.628 695.923h-53.919a3.044 3.044 0 0 1-3.041-3.041v-37.764a3.044 3.044 0 0 1 3.041-3.041h53.919a3.044 3.044 0 0 1 3.04 3.041v37.764a3.044 3.044 0 0 1-3.04 3.041zm-53.919-42.63a1.827 1.827 0 0 0-1.825 1.825v37.764a1.827 1.827 0 0 0 1.825 1.825h53.919a1.827 1.827 0 0 0 1.824-1.825v-37.764a1.827 1.827 0 0 0-1.824-1.825z" fill="#017cee" data-name="Path 1234"/>
        </g>
    </g>
</svg>
