<svg xmlns="http://www.w3.org/2000/svg" width="20.005" height="13.879" viewBox="0 0 20.005 13.879">
    <g id="Group_1619" data-name="Group 1619" transform="translate(271.132 -418.872)">
        <g id="Group_1613" data-name="Group 1613" transform="translate(-266.229 431.045)">
            <path id="Path_1337" d="M-218.5 513.215h-14.583a.259.259 0 0 1-.259-.26.259.259 0 0 1 .259-.259h14.583a.26.26 0 0 1 .259.259.259.259 0 0 1-.259.26z" fill="#51504f" data-name="Path 1337" transform="translate(233.345 -512.696)"/>
        </g>
        <g id="Group_1614" data-name="Group 1614" transform="translate(-266.229 425.684)">
            <path id="Path_1338" d="M-218.5 471.9h-14.583a.259.259 0 0 1-.259-.26.26.26 0 0 1 .259-.259h14.583a.26.26 0 0 1 .259.259.26.26 0 0 1-.259.26z" fill="#51504f" data-name="Path 1338" transform="translate(233.345 -471.376)"/>
        </g>
        <g id="Group_1615" data-name="Group 1615" transform="translate(-266.229 420.323)">
            <path id="Path_1339" d="M-218.5 430.574h-14.583a.259.259 0 0 1-.259-.259.259.259 0 0 1 .259-.259h14.583a.26.26 0 0 1 .259.259.259.259 0 0 1-.259.259z" fill="#51504f" data-name="Path 1339" transform="translate(233.345 -430.055)"/>
        </g>
        <g id="Group_1616" data-name="Group 1616" transform="translate(-271.132 429.814)">
            <path id="Path_1340" d="M-269.663 506.145a1.47 1.47 0 0 1-1.469-1.469 1.47 1.47 0 0 1 1.469-1.469 1.47 1.47 0 0 1 1.469 1.469 1.47 1.47 0 0 1-1.469 1.469zm0-2.418a.951.951 0 0 0-.95.95.951.951 0 0 0 .95.95.951.951 0 0 0 .95-.95.951.951 0 0 0-.95-.95z" fill="#51504f" data-name="Path 1340" transform="translate(271.132 -503.208)"/>
        </g>
        <g id="Group_1617" data-name="Group 1617" transform="translate(-271.132 424.556)">
            <path id="Path_1341" d="M-269.663 465.62a1.47 1.47 0 0 1-1.469-1.469 1.47 1.47 0 0 1 1.469-1.469 1.47 1.47 0 0 1 1.469 1.469 1.47 1.47 0 0 1-1.469 1.469zm0-2.418a.951.951 0 0 0-.95.95.951.951 0 0 0 .95.95.951.951 0 0 0 .95-.95.951.951 0 0 0-.95-.952z" fill="#51504f" data-name="Path 1341" transform="translate(271.132 -462.683)"/>
        </g>
        <g id="Group_1618" data-name="Group 1618" transform="translate(-271.132 418.872)">
            <path id="Path_1342" d="M-269.663 421.809a1.47 1.47 0 0 1-1.469-1.469 1.47 1.47 0 0 1 1.469-1.469 1.47 1.47 0 0 1 1.469 1.469 1.47 1.47 0 0 1-1.469 1.469zm0-2.418a.951.951 0 0 0-.95.95.951.951 0 0 0 .95.95.951.951 0 0 0 .95-.95.951.951 0 0 0-.95-.95z" fill="#51504f" data-name="Path 1342" transform="translate(271.132 -418.872)"/>
        </g>
    </g>
</svg>
