<svg xmlns="http://www.w3.org/2000/svg" width="60" height="42.748" viewBox="0 0 60 42.748">
    <g id="Group_1455" data-name="Group 1455" transform="translate(853.723 -652.626)">
        <g id="Group_1453" data-name="Group 1453">
            <path id="Path_1235" d="M-804.022 695.374h-46.324a3.224 3.224 0 0 1-3.377-3.037.627.627 0 0 1 .02-.155l6.9-26.219a3.236 3.236 0 0 1 3.376-2.954h46.327a3.224 3.224 0 0 1 3.377 3.037.627.627 0 0 1-.02.155l-6.9 26.22a3.236 3.236 0 0 1-3.379 2.953zm-48.483-2.965a2.032 2.032 0 0 0 2.159 1.749h46.324a2.015 2.015 0 0 0 2.161-1.821.584.584 0 0 1 .02-.155l6.9-26.208a2.032 2.032 0 0 0-2.159-1.749h-46.324a2.015 2.015 0 0 0-2.161 1.821.627.627 0 0 1-.02.155zm58.174-26.363z" fill="#017cee" data-name="Path 1235"/>
        </g>
        <g id="Group_1454" data-name="Group 1454">
            <path id="Path_1236" d="M-815.831 695.374h-34.515a3.381 3.381 0 0 1-3.377-3.374v-38.766a.608.608 0 0 1 .608-.608h14.665a.61.61 0 0 1 .477.231l2.919 3.691h31.032a3.381 3.381 0 0 1 3.377 3.377v3.692a.608.608 0 0 1-.608.608.608.608 0 0 1-.608-.608v-3.692a2.163 2.163 0 0 0-2.161-2.16h-31.326a.61.61 0 0 1-.477-.231l-2.92-3.692h-13.762V692a2.163 2.163 0 0 0 2.161 2.161h34.515a.608.608 0 0 1 .608.608.608.608 0 0 1-.608.605z" fill="#017cee" data-name="Path 1236"/>
        </g>
    </g>
</svg>
