<svg xmlns="http://www.w3.org/2000/svg" width="21.332" height="21.2" viewBox="0 0 21.332 21.2">
    <g id="Group_1748" data-name="Group 1748" transform="translate(-1654.242 -1377.267)">
        <path id="Path_1379" d="M1766.91 1472.142v-.022h-2.955v.022z" fill="none" data-name="Path 1379" transform="translate(-97.392 -84.198)"/>
        <path id="Path_1380" d="M1712.911 1420.842v-2.351c0-2.669 1.582-4.152 4.02-4.152a15.28 15.28 0 0 1 2.362.218v-.009a15.3 15.3 0 0 0-2.373-.22c-2.439 0-4.02 1.483-4.02 4.152v2.351h-2.724v3.076h.011v-3.065z" fill="none" data-name="Path 1380" transform="translate(-49.651 -32.898)"/>
        <path id="Path_1381" d="M1675.574 1387.933a10.666 10.666 0 1 0-12.325 10.534v-7.448h-2.713v-.011h-.011v-3.076h2.724v-2.351c0-2.669 1.582-4.152 4.02-4.152a15.307 15.307 0 0 1 2.373.22v.009h.011v2.615h-1.34a1.553 1.553 0 0 0-1.747 1.67v1.977h2.955v.022h.014l-.472 3.076h-2.483v7.433a10.635 10.635 0 0 0 8.994-10.518z" fill="#51504f" data-name="Path 1381"/>
        <path id="Rectangle_882" d="M0 0h2.713v.011H0z" fill="#51504f" data-name="Rectangle 882" transform="translate(1660.536 1391.009)"/>
        <path id="Path_1382" d="M1765.607 1418.958a1.553 1.553 0 0 0-1.747 1.67v2h.011v-1.977a1.553 1.553 0 0 1 1.747-1.67h1.34v-2.614h-.011v2.594z" fill="#51504f" data-name="Path 1382" transform="translate(-97.305 -34.705)"/>
        <path id="Path_1383" d="M1766.365 1475.391l.472-3.076h-.014l-.469 3.054h-2.494v7.459h.022v-7.433z" fill="#51504f" data-name="Path 1383" transform="translate(-97.305 -84.371)"/>
    </g>
</svg>
