<svg xmlns="http://www.w3.org/2000/svg" width="60" height="56.368" viewBox="0 0 60 56.368">
    <g id="Group_1444" data-name="Group 1444" transform="translate(1113.183 -645.816)">
        <g id="Group_1441" data-name="Group 1441">
            <g id="Group_1439" data-name="Group 1439">
                <path id="Path_1226" d="M-1066.914 702.183c-.115 0-.23 0-.346-.008a6.8 6.8 0 0 1-4.918-2.495l-12.434-15.276-3.457.107a.614.614 0 0 1-.449-.178l-3.182-3.183a.607.607 0 0 1-.178-.43.606.606 0 0 1 .178-.429l9.684-9.684a.606.606 0 0 1 .859 0l3.228 3.228a.606.606 0 0 1 .178.459l-.165 3.387 15.29 12.448a6.8 6.8 0 0 1 2.494 4.919 6.8 6.8 0 0 1-1.98 5.147 6.8 6.8 0 0 1-4.802 1.988zm-17.416-19a.607.607 0 0 1 .471.224l12.624 15.509a5.584 5.584 0 0 0 4.038 2.048 5.577 5.577 0 0 0 4.225-1.625 5.579 5.579 0 0 0 1.625-4.225 5.581 5.581 0 0 0-2.047-4.038l-15.528-12.642a.609.609 0 0 1-.224-.5l.167-3.425-2.608-2.607-8.823 8.823 2.566 2.567 3.495-.108z" fill="#017cee" data-name="Path 1226"/>
            </g>
            <g id="Group_1440" data-name="Group 1440">
                <path id="Path_1227" d="M-1089.441 678.891l-15.03-15.03-3.606-.546a.607.607 0 0 1-.433-.293l-4.589-7.817a.608.608 0 0 1 .095-.738l5.164-5.164a.608.608 0 0 1 .738-.095l7.817 4.589a.607.607 0 0 1 .293.433l.546 3.607 15.03 15.029-.86.86-15.171-15.171a.6.6 0 0 1-.171-.339l-.533-3.517-7.161-4.2-4.5 4.5 4.2 7.161 3.517.533a.6.6 0 0 1 .339.171l15.171 15.171z" fill="#017cee" data-name="Path 1227"/>
            </g>
        </g>
        <g id="Group_1442" data-name="Group 1442">
            <path id="Path_1228" d="M-1077.186 679.14l-.86-.86 7.044-7.044.353.112a12.418 12.418 0 0 0 12.6-3.054 12.469 12.469 0 0 0 3.409-11.234l-5.375 5.375-7.722-2.068-2.069-7.722 5.376-5.375a12.466 12.466 0 0 0-11.234 3.409 12.416 12.416 0 0 0-3.054 12.6l.112.353-7.452 7.453-.86-.86 6.932-6.933a13.627 13.627 0 0 1 3.462-13.476 13.688 13.688 0 0 1 13.457-3.469l.991.285-6.373 6.374 1.7 6.365 6.365 1.7 6.374-6.374.285.992a13.688 13.688 0 0 1-3.469 13.457 13.627 13.627 0 0 1-13.476 3.462z" fill="#017cee" data-name="Path 1228"/>
        </g>
        <g id="Group_1443" data-name="Group 1443">
            <path id="Path_1229" d="M-1103.6 702.184a5.913 5.913 0 0 1-4.262-1.689 6.05 6.05 0 0 1-1.652-5 8.761 8.761 0 0 1 2.592-5.264l14.842-14.842.86.86-14.842 14.842a7.547 7.547 0 0 0-2.242 4.525 4.858 4.858 0 0 0 1.3 4.015 4.86 4.86 0 0 0 4.015 1.3 7.547 7.547 0 0 0 4.525-2.242l14.436-14.435.859.86-14.435 14.435a8.762 8.762 0 0 1-5.264 2.592 7.312 7.312 0 0 1-.732.043z" fill="#017cee" data-name="Path 1229"/>
        </g>
    </g>
</svg>
