<svg xmlns="http://www.w3.org/2000/svg" width="30.76" height="30">
    <path d="M15.379 0a15.381 15.381 0 00-4.86 29.974c.769.141 1.05-.334 1.05-.741 0-.365-.013-1.332-.021-2.616-4.278.929-5.181-2.062-5.181-2.062a4.071 4.071 0 00-1.708-2.25c-1.4-.954.106-.935.106-.935a3.231 3.231 0 012.356 1.585 3.274 3.274 0 004.476 1.278 3.287 3.287 0 01.976-2.056c-3.415-.388-7.005-1.707-7.005-7.6a5.947 5.947 0 011.583-4.127 5.53 5.53 0 01.151-4.07s1.291-.413 4.229 1.577a14.577 14.577 0 017.7 0c2.936-1.99 4.225-1.577 4.225-1.577a5.523 5.523 0 01.153 4.07 5.937 5.937 0 011.581 4.127c0 5.909-3.6 7.209-7.022 7.589a3.672 3.672 0 011.044 2.848c0 2.056-.019 3.715-.019 4.219 0 .411.277.89 1.057.74A15.382 15.382 0 0015.378.001z"
          data-name="Path 224" fill="#51504f" fill-rule="evenodd"/>
</svg>
