<svg xmlns="http://www.w3.org/2000/svg" width="21.737" height="21.2" viewBox="0 0 21.737 21.2">
    <path id="Path_1378" d="M33.971 1181.31a10.87 10.87 0 0 0-3.435 21.182c.543.1.742-.236.742-.524 0-.258-.009-.941-.015-1.848-3.023.657-3.661-1.457-3.661-1.457a2.876 2.876 0 0 0-1.207-1.59c-.987-.674.075-.661.075-.661a2.283 2.283 0 0 1 1.665 1.12 2.314 2.314 0 0 0 3.163.9 2.322 2.322 0 0 1 .69-1.453c-2.413-.274-4.951-1.207-4.951-5.371a4.2 4.2 0 0 1 1.119-2.917 3.908 3.908 0 0 1 .107-2.876s.913-.292 2.989 1.114a10.3 10.3 0 0 1 5.442 0c2.075-1.406 2.986-1.114 2.986-1.114a3.9 3.9 0 0 1 .108 2.876 4.2 4.2 0 0 1 1.117 2.917c0 4.175-2.541 5.094-4.962 5.363a2.6 2.6 0 0 1 .738 2.013c0 1.453-.013 2.625-.013 2.982 0 .291.2.629.747.523a10.87 10.87 0 0 0-3.443-21.18z" fill="#51504f" fill-rule="evenodd" data-name="Path 1378" transform="translate(-23.103 -1181.31)"/>
</svg>
