<svg xmlns="http://www.w3.org/2000/svg" width="30.76" height="30" viewBox="0 0 30.76 30">
    <defs>
        <style>
            .cls-1{fill:#51504f;fill-rule:evenodd}
        </style>
    </defs>
    <path id="Path_224" d="M38.482 1181.31a15.381 15.381 0 0 0-4.86 29.974c.769.141 1.05-.334 1.05-.741 0-.365-.013-1.332-.021-2.616-4.278.929-5.181-2.062-5.181-2.062a4.071 4.071 0 0 0-1.708-2.25c-1.4-.954.106-.935.106-.935a3.231 3.231 0 0 1 2.356 1.585 3.274 3.274 0 0 0 4.476 1.278 3.287 3.287 0 0 1 .976-2.056c-3.415-.388-7.005-1.707-7.005-7.6a5.947 5.947 0 0 1 1.583-4.127 5.53 5.53 0 0 1 .151-4.07s1.291-.413 4.229 1.577a14.577 14.577 0 0 1 7.7 0c2.936-1.99 4.225-1.577 4.225-1.577a5.523 5.523 0 0 1 .153 4.07 5.937 5.937 0 0 1 1.581 4.127c0 5.909-3.6 7.209-7.022 7.589a3.672 3.672 0 0 1 1.044 2.848c0 2.056-.019 3.715-.019 4.219 0 .411.277.89 1.057.74a15.382 15.382 0 0 0-4.872-29.972z" class="cls-1" data-name="Path 224" transform="translate(-23.103 -1181.31)"/>
</svg>
