<svg xmlns="http://www.w3.org/2000/svg" width="100.008" height="100" viewBox="0 0 100.008 100">
    <g id="Group_584" data-name="Group 584" transform="translate(-379.858 2959.381)">
        <g id="Group_583" data-name="Group 583" transform="translate(379.859 -2959.381)">
            <path id="Path_554" d="M437.625-2859.381a2.165 2.165 0 0 1-2.091-1.616l-12.577-41.482-41.515-12.586a2.143 2.143 0 0 1-1.449-1.334 2.146 2.146 0 0 1 .065-1.652 2.147 2.147 0 0 1 1.215-1.122l95.594-40.047a2.19 2.19 0 0 1 .548-.141 2.158 2.158 0 0 1 1.121.146 2.146 2.146 0 0 1 1.167 1.171 2.144 2.144 0 0 1 0 1.653l-40.062 95.631a2.14 2.14 0 0 1-1.469 1.308 2.147 2.147 0 0 1-.547.071zm-12.989-43.541l12.568 41.454a.435.435 0 0 0 .528.337.424.424 0 0 0 .292-.264l39.546-94.4-52.905 52.906zm51.868-54.266l-94.6 39.628a.461.461 0 0 0-.274.235.423.423 0 0 0-.013.325.425.425 0 0 0 .292.264l41.545 12.6z" fill="#017cee" data-name="Path 554" transform="translate(-379.859 2959.381)"/>
        </g>
    </g>
</svg>
