<svg xmlns="http://www.w3.org/2000/svg" width="45" height="45" viewBox="0 0 45 45">
    <g id="Group_210" data-name="Group 210" transform="translate(-339.789 -1315.282)">
        <path id="Path_218" d="M394.82 1315.282h-21.671a9.784 9.784 0 0 0 9.784 9.778h3.986v3.857a9.784 9.784 0 0 0 9.784 9.771v-21.523a1.884 1.884 0 0 0-1.883-1.883z" fill="#fff" data-name="Path 218" transform="translate(-11.914)"/>
        <path id="Path_219" d="M378.14 1332.072h-21.671a9.778 9.778 0 0 0 9.778 9.778h4.018v3.857a9.784 9.784 0 0 0 9.752 9.778v-21.536a1.877 1.877 0 0 0-1.877-1.877z" fill="#fff" data-name="Path 219" transform="translate(-5.957 -5.996)"/>
        <path id="Path_220" d="M361.46 1348.862h-21.671a9.778 9.778 0 0 0 9.778 9.778h3.992v3.857a9.778 9.778 0 0 0 9.778 9.778v-21.529a1.883 1.883 0 0 0-1.877-1.884z" fill="#fff" data-name="Path 220" transform="translate(0 -11.993)"/>
    </g>
</svg>
