<svg xmlns="http://www.w3.org/2000/svg" width="60" height="43.846" viewBox="0 0 60 43.846">
    <g id="Group_1417" data-name="Group 1417" transform="translate(1242.912 -652.077)">
        <g id="Group_1413" data-name="Group 1413">
            <path id="Path_1208" d="M-1212.912 677.749a.6.6 0 0 1-.387-.139l-28.606-23.558.773-.939 28.22 23.24 28.22-23.24.773.939-28.607 23.558a.6.6 0 0 1-.386.139z" fill="#017cee" data-name="Path 1208"/>
        </g>
        <g id="Group_1414" data-name="Group 1414">
            <path id="Rectangle_471" d="M0 0h1.216v32.117H0z" fill="#017cee" data-name="Rectangle 471" transform="rotate(-50.527 109.86 1618.69)"/>
        </g>
        <g id="Group_1415" data-name="Group 1415">
            <path id="Rectangle_472" d="M0 0h32.117v1.216H0z" fill="#017cee" data-name="Rectangle 472" transform="rotate(-39.47 346.56 2076.918)"/>
        </g>
        <g id="Group_1416" data-name="Group 1416">
            <path id="Path_1209" d="M-1185.953 695.923h-53.919a3.044 3.044 0 0 1-3.04-3.041v-37.764a3.044 3.044 0 0 1 3.04-3.041h53.919a3.044 3.044 0 0 1 3.041 3.041v37.764a3.044 3.044 0 0 1-3.041 3.041zm-53.919-42.63a1.827 1.827 0 0 0-1.824 1.825v37.764a1.827 1.827 0 0 0 1.824 1.825h53.919a1.827 1.827 0 0 0 1.825-1.825v-37.764a1.827 1.827 0 0 0-1.825-1.825z" fill="#017cee" data-name="Path 1209"/>
        </g>
    </g>
</svg>
