<svg xmlns="http://www.w3.org/2000/svg" width="20" height="20" viewBox="0 0 20 21">
    <g id="Group_1745" data-name="Group 1745" transform="translate(.155 -.055)">
        <ellipse id="Ellipse_20" cx="10" cy="10.5" fill="#51504f" data-name="Ellipse 20" rx="10" ry="10.5" transform="translate(-.155 .055)"/>
        <g id="Group_698" data-name="Group 698" transform="translate(5.843 5.004)">
            <path id="Path_644" d="M-1311.072 1423.962a.9.9 0 0 1-.972.9.888.888 0 0 1-.937-.9.9.9 0 0 1 .961-.9.892.892 0 0 1 .948.9zm-1.862 7.413v-5.8h1.8v5.8z" fill="#fff" data-name="Path 644" transform="translate(1312.981 -1423.061)"/>
            <path id="Path_645" d="M-1284.253 1448.767c0-.723-.024-1.328-.047-1.85h1.565l.083.806h.035a2.084 2.084 0 0 1 1.791-.937c1.186 0 2.076.795 2.076 2.5v3.428h-1.8v-3.214c0-.747-.261-1.257-.914-1.257a.989.989 0 0 0-.925.676 1.29 1.29 0 0 0-.06.451v3.345h-1.8z" fill="#fff" data-name="Path 645" transform="translate(1287.182 -1444.402)"/>
        </g>
    </g>
</svg>
