<svg xmlns="http://www.w3.org/2000/svg" width="30" height="30">
    <g id="Group_699" data-name="Group 699" transform="translate(1366.519 -1377.435)">
        <circle id="Ellipse_20" cx="15" cy="15" r="15" data-name="Ellipse 20" transform="translate(-1366.519 1377.434)"
                fill="#51504f"/>
        <g id="Group_698" data-name="Group 698" transform="translate(-1357.541 1384.721)">
            <path id="Path_644"
                  d="M-1310.279 1424.337a1.272 1.272 0 01-1.376 1.275 1.257 1.257 0 01-1.326-1.275 1.266 1.266 0 011.359-1.276 1.262 1.262 0 011.343 1.276zm-2.635 10.49v-8.208h2.551v8.208z"
                  fill="#fff" data-name="Path 644" transform="translate(1312.981 -1423.061)"/>
            <path id="Path_645"
                  d="M-1284.233 1449.589c0-1.024-.033-1.88-.067-2.618h2.215l.118 1.141h.05a2.948 2.948 0 012.535-1.326c1.678 0 2.937 1.125 2.937 3.542v4.851H-1279v-4.549c0-1.057-.37-1.779-1.293-1.779a1.4 1.4 0 00-1.309.957 1.831 1.831 0 00-.084.638v4.733h-2.551z"
                  fill="#fff" data-name="Path 645" transform="translate(1288.378 -1443.413)"/>
        </g>
    </g>
</svg>
