<svg xmlns="http://www.w3.org/2000/svg" width="75.229" height="100" viewBox="0 0 75.229 100">
    <g id="Group_582" data-name="Group 582" transform="translate(405 2951.975)">
        <g id="Group_569" data-name="Group 569" transform="translate(-405 -2951.975)">
            <path id="Path_541" d="M-333.98-2851.975h-66.812a4.212 4.212 0 0 1-4.208-4.208v-91.584a4.212 4.212 0 0 1 4.208-4.208h66.812a4.212 4.212 0 0 1 4.208 4.208v91.584a4.212 4.212 0 0 1-4.208 4.208zm-66.812-98.317a2.528 2.528 0 0 0-2.525 2.525v91.584a2.528 2.528 0 0 0 2.525 2.525h66.812a2.528 2.528 0 0 0 2.525-2.525v-91.584a2.528 2.528 0 0 0-2.525-2.525z" fill="#017cee" data-name="Path 541" transform="translate(405 2951.975)"/>
        </g>
        <g id="Group_570" data-name="Group 570" transform="translate(-379.424 -2895.38)">
            <path id="Path_542" d="M-321.17-2849.359h-36.548a.857.857 0 0 1-.857-.857.857.857 0 0 1 .857-.857h36.548a.857.857 0 0 1 .857.857.857.857 0 0 1-.857.857z" fill="#017cee" data-name="Path 542" transform="translate(358.575 2851.073)"/>
        </g>
        <g id="Group_571" data-name="Group 571" transform="translate(-379.424 -2881.809)">
            <path id="Path_543" d="M-321.17-2825.163h-36.548a.857.857 0 0 1-.857-.857.857.857 0 0 1 .857-.857h36.548a.857.857 0 0 1 .857.857.857.857 0 0 1-.857.857z" fill="#017cee" data-name="Path 543" transform="translate(358.575 2826.877)"/>
        </g>
        <g id="Group_572" data-name="Group 572" transform="translate(-379.424 -2868.506)">
            <path id="Path_544" d="M-321.17-2800.967h-36.548a.857.857 0 0 1-.857-.857.857.857 0 0 1 .857-.857h36.548a.857.857 0 0 1 .857.857.857.857 0 0 1-.857.857z" fill="#017cee" data-name="Path 544" transform="translate(358.575 2802.681)"/>
        </g>
        <g id="Group_573" data-name="Group 573" transform="translate(-392.82 -2885.075)">
            <path id="Path_545" d="M-379-2824.051a4.248 4.248 0 0 1-4.244-4.244 4.249 4.249 0 0 1 4.244-4.244 4.249 4.249 0 0 1 4.244 4.244 4.249 4.249 0 0 1-4.244 4.244zm0-6.774a2.534 2.534 0 0 0-2.53 2.531 2.533 2.533 0 0 0 2.53 2.53 2.533 2.533 0 0 0 2.531-2.53 2.534 2.534 0 0 0-2.531-2.531z" fill="#017cee" data-name="Path 545" transform="translate(383.242 2832.539)"/>
        </g>
        <g id="Group_574" data-name="Group 574" transform="translate(-392.964 -2898.959)">
            <path id="Path_546" d="M-379.256-2848.839a4.249 4.249 0 0 1-4.244-4.244 4.249 4.249 0 0 1 4.244-4.244 4.249 4.249 0 0 1 4.244 4.244 4.249 4.249 0 0 1-4.244 4.244zm0-6.775a2.533 2.533 0 0 0-2.531 2.531 2.533 2.533 0 0 0 2.531 2.53 2.533 2.533 0 0 0 2.53-2.53 2.533 2.533 0 0 0-2.53-2.53z" fill="#017cee" data-name="Path 546" transform="translate(383.5 2857.327)"/>
        </g>
        <g id="Group_575" data-name="Group 575" transform="translate(-379.424 -2909.385)">
            <path id="Path_547" d="M-321.17-2874.327h-36.548a.857.857 0 0 1-.857-.857.857.857 0 0 1 .857-.857h36.548a.857.857 0 0 1 .857.857.857.857 0 0 1-.857.857z" fill="#017cee" data-name="Path 547" transform="translate(358.575 2876.041)"/>
        </g>
        <g id="Group_576" data-name="Group 576" transform="translate(-392.964 -2912.876)">
            <path id="Path_548" d="M-379.256-2873.685a4.249 4.249 0 0 1-4.244-4.244 4.249 4.249 0 0 1 4.244-4.244 4.249 4.249 0 0 1 4.244 4.244 4.249 4.249 0 0 1-4.244 4.244zm0-6.775a2.533 2.533 0 0 0-2.531 2.531 2.533 2.533 0 0 0 2.531 2.53 2.533 2.533 0 0 0 2.53-2.53 2.533 2.533 0 0 0-2.53-2.53z" fill="#017cee" data-name="Path 548" transform="translate(383.5 2882.173)"/>
        </g>
        <g id="Group_577" data-name="Group 577" transform="translate(-379.424 -2923.389)">
            <path id="Path_549" d="M-321.17-2899.3h-36.548a.857.857 0 0 1-.857-.857.857.857 0 0 1 .857-.857h36.548a.857.857 0 0 1 .857.857.857.857 0 0 1-.857.857z" fill="#017cee" data-name="Path 549" transform="translate(358.575 2901.009)"/>
        </g>
        <g id="Group_578" data-name="Group 578" transform="translate(-392.964 -2940.576)">
            <path id="Path_550" d="M-379.256-2923.532a4.248 4.248 0 0 1-4.244-4.244 4.249 4.249 0 0 1 4.244-4.244 4.249 4.249 0 0 1 4.244 4.244 4.248 4.248 0 0 1-4.244 4.244zm0-6.774a2.534 2.534 0 0 0-2.531 2.531 2.533 2.533 0 0 0 2.531 2.53 2.533 2.533 0 0 0 2.53-2.53 2.534 2.534 0 0 0-2.53-2.531z" fill="#017cee" data-name="Path 550" transform="translate(383.5 2932.02)"/>
        </g>
        <g id="Group_579" data-name="Group 579" transform="translate(-379.424 -2937.124)">
            <path id="Path_551" d="M-321.17-2924.263h-36.548a.857.857 0 0 1-.857-.857.857.857 0 0 1 .857-.857h36.548a.857.857 0 0 1 .857.857.857.857 0 0 1-.857.857z" fill="#017cee" data-name="Path 551" transform="translate(358.575 2925.977)"/>
        </g>
        <g id="Group_580" data-name="Group 580" transform="translate(-392.964 -2926.708)">
            <path id="Path_552" d="M-379.256-2898.378a4.249 4.249 0 0 1-4.244-4.244 4.249 4.249 0 0 1 4.244-4.244 4.249 4.249 0 0 1 4.244 4.244 4.249 4.249 0 0 1-4.244 4.244zm0-6.775a2.534 2.534 0 0 0-2.531 2.531 2.533 2.533 0 0 0 2.531 2.53 2.533 2.533 0 0 0 2.53-2.53 2.534 2.534 0 0 0-2.53-2.53z" fill="#017cee" data-name="Path 552" transform="translate(383.5 2906.866)"/>
        </g>
        <g id="Group_581" data-name="Group 581" transform="translate(-392.835 -2871.684)">
            <path id="Path_553" d="M-379.025-2799.756a4.249 4.249 0 0 1-4.244-4.244 4.249 4.249 0 0 1 4.244-4.244 4.249 4.249 0 0 1 4.245 4.244 4.249 4.249 0 0 1-4.245 4.244zm0-6.774a2.534 2.534 0 0 0-2.531 2.531 2.533 2.533 0 0 0 2.531 2.53 2.533 2.533 0 0 0 2.531-2.53 2.533 2.533 0 0 0-2.531-2.531z" fill="#017cee" data-name="Path 553" transform="translate(383.269 2808.244)"/>
        </g>
    </g>
</svg>
