<svg xmlns="http://www.w3.org/2000/svg" width="19.805" height="20">
    <g id="Group_890" data-name="Group 890" transform="translate(-44.086 -41)">
        <path id="Path_689"
              d="M87.076 47.7a3.353 3.353 0 1 0-2.362-.974 3.34 3.34 0 0 0 2.362.974zm0-5.957a2.6 2.6 0 1 1-2.6 2.6 2.608 2.608 0 0 1 2.6-2.595z"
              fill="#707070" data-name="Path 689" transform="translate(-35.934)"/>
        <path id="Path_690"
              d="M60.2 95.824a.31.31 0 0 0-.405.018 4.173 4.173 0 0 1-2.856 1.133 4.163 4.163 0 0 1-2.9-1.174.31.31 0 0 0-.406-.023 9.206 9.206 0 0 0-2.773 3.864h-6.016a10.888 10.888 0 0 1 3.171-7.571 4.914 4.914 0 0 0 5.581.467 3.185 3.185 0 0 0-.011.259A3.351 3.351 0 0 0 56.7 96.14c.08.006.16.01.242.01a3.352 3.352 0 1 0-3.056-4.729 4.167 4.167 0 0 1-5.638-.147.31.31 0 0 0-.406-.023c-2.135 1.647-3.621 4.864-3.751 8.608a.516.516 0 0 0 .516.531h5.98a14.242 14.242 0 0 0-.7 4 .516.516 0 0 0 .516.531h12.971a.516.516 0 0 0 .516-.531c-.127-3.713-1.59-6.905-3.69-8.566zm-3.262-5.631a2.611 2.611 0 1 1-2.268 1.325 2.608 2.608 0 0 1 2.267-1.325zm-6.3 13.977a13.381 13.381 0 0 1 .737-3.78q.137-.384.3-.748a8.538 8.538 0 0 1 2.134-3.042 4.894 4.894 0 0 0 3.128 1.123h.167a4.912 4.912 0 0 0 2.907-1.077 10.956 10.956 0 0 1 3.121 7.528z"
              fill="#707070" data-name="Path 690" transform="translate(0 -43.917)"/>
    </g>
</svg>
