<svg xmlns="http://www.w3.org/2000/svg" width="59.393" height="43.404" viewBox="0 0 59.393 43.404">
    <g id="Group_1438" data-name="Group 1438" transform="translate(983.149 -652.298)">
        <g id="Group_1436" data-name="Group 1436">
            <g id="Group_1433" data-name="Group 1433">
                <path id="Path_1222" d="M-957.671 686.932a.624.624 0 0 1-.179-.027.609.609 0 0 1-.4-.76l7.55-24.645a.608.608 0 0 1 .76-.4.608.608 0 0 1 .4.76l-7.55 24.64a.609.609 0 0 1-.581.432z" fill="#017cee" data-name="Path 1222"/>
            </g>
            <g id="Group_1434" data-name="Group 1434">
                <path id="Path_1223" d="M-961.257 680.764a.6.6 0 0 1-.43-.178l-6.123-6.124a.606.606 0 0 1 0-.859l5.966-5.967a.609.609 0 0 1 .86 0 .607.607 0 0 1 0 .86l-5.536 5.536 5.693 5.694a.607.607 0 0 1 0 .86.6.6 0 0 1-.43.178z" fill="#017cee" data-name="Path 1223"/>
            </g>
            <g id="Group_1435" data-name="Group 1435">
                <path id="Path_1224" d="M-946.158 680.764a.606.606 0 0 1-.43-.178.609.609 0 0 1 0-.86l5.537-5.537-5.694-5.693a.609.609 0 0 1 0-.86.609.609 0 0 1 .86 0l6.123 6.123a.607.607 0 0 1 0 .86l-5.966 5.967a.6.6 0 0 1-.43.178z" fill="#017cee" data-name="Path 1224"/>
            </g>
        </g>
        <g id="Group_1437" data-name="Group 1437">
            <path id="Path_1225" d="M-926.8 695.7h-53.311a3.044 3.044 0 0 1-3.041-3.04v-37.322a3.044 3.044 0 0 1 3.041-3.04h53.311a3.044 3.044 0 0 1 3.04 3.04v37.324a3.044 3.044 0 0 1-3.04 3.038zm-53.311-42.188a1.827 1.827 0 0 0-1.825 1.824v37.324a1.827 1.827 0 0 0 1.825 1.824h53.311a1.826 1.826 0 0 0 1.824-1.824v-37.322a1.826 1.826 0 0 0-1.824-1.824z" fill="#017cee" data-name="Path 1225"/>
        </g>
    </g>
</svg>
