<svg xmlns="http://www.w3.org/2000/svg" width="43.847" height="60" viewBox="0 0 43.847 60">
    <g id="Group_1462" data-name="Group 1462" transform="translate(780.781 -644)">
        <g id="Group_1456" data-name="Group 1456">
            <path id="Path_1237" d="M-740.682 704h-36.353a3.751 3.751 0 0 1-3.746-3.746v-52.508a3.751 3.751 0 0 1 3.746-3.746h36.353a3.751 3.751 0 0 1 3.747 3.746v52.508a3.751 3.751 0 0 1-3.747 3.746zm-36.353-58.784a2.533 2.533 0 0 0-2.53 2.53v52.508a2.533 2.533 0 0 0 2.53 2.53h36.353a2.533 2.533 0 0 0 2.53-2.53v-52.508a2.533 2.533 0 0 0-2.53-2.53z" fill="#017cee" data-name="Path 1237"/>
        </g>
        <g id="Group_1457" data-name="Group 1457">
            <path id="Path_1238" d="M-746.828 656.17h-23.015a.608.608 0 0 1-.608-.608.608.608 0 0 1 .608-.608h23.015a.608.608 0 0 1 .608.608.608.608 0 0 1-.608.608z" fill="#017cee" data-name="Path 1238"/>
        </g>
        <g id="Group_1458" data-name="Group 1458">
            <path id="Path_1239" d="M-746.828 665.324h-23.015a.608.608 0 0 1-.608-.608.608.608 0 0 1 .608-.608h23.015a.608.608 0 0 1 .608.608.608.608 0 0 1-.608.608z" fill="#017cee" data-name="Path 1239"/>
        </g>
        <g id="Group_1459" data-name="Group 1459">
            <path id="Path_1240" d="M-746.828 674.477h-23.015a.608.608 0 0 1-.608-.608.608.608 0 0 1 .608-.608h23.015a.608.608 0 0 1 .608.608.608.608 0 0 1-.608.608z" fill="#017cee" data-name="Path 1240"/>
        </g>
        <g id="Group_1460" data-name="Group 1460">
            <path id="Path_1241" d="M-746.828 683.631h-23.015a.608.608 0 0 1-.608-.608.608.608 0 0 1 .608-.608h23.015a.608.608 0 0 1 .608.608.608.608 0 0 1-.608.608z" fill="#017cee" data-name="Path 1241"/>
        </g>
        <g id="Group_1461" data-name="Group 1461">
            <path id="Path_1242" d="M-752.818 692.784h-17.025a.608.608 0 0 1-.608-.608.608.608 0 0 1 .608-.608h17.025a.608.608 0 0 1 .608.608.608.608 0 0 1-.608.608z" fill="#017cee" data-name="Path 1242"/>
        </g>
    </g>
</svg>
