<svg xmlns="http://www.w3.org/2000/svg" width="113.758" height="82.814" viewBox="0 0 113.758 82.814">
    <g id="Group_630" data-name="Group 630" transform="translate(-520 -1967)">
        <g id="Group_629" data-name="Group 629" transform="translate(-756.098 4950.694)">
            <g id="Group_620" data-name="Group 620" transform="translate(1276.098 -2961.164)">
                <path id="Path_588" d="M1289.509-2911.543h-10.837a2.577 2.577 0 0 1-2.574-2.574v-27.61a2.576 2.576 0 0 1 2.574-2.574h10.837a2.576 2.576 0 0 1 2.574 2.574v27.61a2.577 2.577 0 0 1-2.574 2.574zm-10.837-31.042a.859.859 0 0 0-.858.858v27.61a.859.859 0 0 0 .858.858h10.837a.859.859 0 0 0 .858-.858v-27.61a.859.859 0 0 0-.858-.858z" fill="#017cee" data-name="Path 588" transform="translate(-1276.098 2944.301)"/>
            </g>
            <g id="Group_621" data-name="Group 621" transform="translate(1280.736 -2929.406)">
                <path id="Path_589" d="M1294.412-2860.247a2.417 2.417 0 0 1-.391-.032l-7.844-1.313a2.362 2.362 0 0 1-1.938-2.717l4.093-24.465 1.692.283-4.093 24.466a.644.644 0 0 0 .529.741l7.844 1.313a.641.641 0 0 0 .742-.529l4.26-25.467 1.693.283-4.26 25.467a2.364 2.364 0 0 1-2.327 1.97z" fill="#017cee" data-name="Path 589" transform="translate(-1284.207 2888.774)"/>
            </g>
            <g id="Group_622" data-name="Group 622" transform="translate(1290.172 -2982.633)">
                <path id="Rectangle_90" d="M0 0h64.634v1.715H0z" fill="#017cee" data-name="Rectangle 90" transform="rotate(-20.388 62.61 11.258)"/>
            </g>
            <g id="Group_623" data-name="Group 623" transform="translate(1290.175 -2931.571)">
                <path id="Rectangle_91" d="M0 0h1.715v64.634H0z" fill="#017cee" data-name="Rectangle 91" transform="rotate(-69.57 1.157 .804)"/>
            </g>
            <g id="Group_624" data-name="Group 624" transform="translate(1341.184 -2983.694)">
                <path id="Path_590" d="M1402.272-2906.377c-7.745 0-12.373-19.655-12.373-38.659s4.628-38.658 12.373-38.658 12.374 19.656 12.374 38.658-4.629 38.659-12.374 38.659zm0-75.6c-5.146 0-10.657 14.844-10.657 36.942s5.511 36.943 10.657 36.943 10.658-14.845 10.658-36.943-5.511-36.943-10.658-36.943z" fill="#017cee" data-name="Path 590" transform="translate(-1389.899 2983.694)"/>
            </g>
            <g id="Group_625" data-name="Group 625" transform="translate(1342.542 -2957.66)">
                <path id="Path_591" d="M1392.274-2913.427v-1.716a10.67 10.67 0 0 0 10.658-10.658 10.67 10.67 0 0 0-10.658-10.657v-1.716a12.387 12.387 0 0 1 12.374 12.373 12.387 12.387 0 0 1-12.374 12.374z" fill="#017cee" data-name="Path 591" transform="translate(-1392.274 2938.174)"/>
            </g>
            <g id="Group_626" data-name="Group 626" transform="translate(1371.312 -2977.009)">
                <path id="Rectangle_92" d="M0 0h15.721v1.716H0z" fill="#017cee" data-name="Rectangle 92" transform="rotate(-37.221 14.12 4.755)"/>
            </g>
            <g id="Group_627" data-name="Group 627" transform="translate(1371.313 -2922.938)">
                <path id="Rectangle_93" d="M0 0h1.716v15.721H0z" fill="#017cee" data-name="Rectangle 93" transform="rotate(-52.765 1.377 .683)"/>
            </g>
            <g id="Group_628" data-name="Group 628" transform="translate(1373.834 -2946.144)">
                <path id="Rectangle_94" d="M0 0h16.021v1.716H0z" fill="#017cee" data-name="Rectangle 94"/>
            </g>
        </g>
    </g>
</svg>
