<svg xmlns="http://www.w3.org/2000/svg" width="20" height="20" viewBox="0 0 20 20">
    <g id="Group_1579" data-name="Group 1579" transform="translate(-41.001 -41)">
        <path id="Path_169" d="M71.415 64.687a7.215 7.215 0 1 0-6.729 6.728 7.222 7.222 0 0 0 6.729-6.728z" fill="none" data-name="Path 169" transform="translate(-14.277 -14.276)"/>
        <path id="Path_170" d="M60.863 59.8l-6.093-6.09a7.78 7.78 0 1 0-1.06 1.06l6.09 6.093a.468.468 0 0 0 .662 0l.4-.4a.468.468 0 0 0 .001-.663zM42.512 49.183a6.274 6.274 0 1 1 5.851 5.85 6.28 6.28 0 0 1-5.851-5.85z" fill="#51504f" data-name="Path 170"/>
    </g>
</svg>
