<svg xmlns="http://www.w3.org/2000/svg" width="45.073" height="45.073" viewBox="0 0 45.073 45.073">
    <g id="Group_208" data-name="Group 208" transform="translate(-661.145 -806.287)">
        <g id="Group_204" data-name="Group 204" transform="translate(661.145 830.01)">
            <path id="Path_208" d="M670.634 856.859a4.744 4.744 0 1 1-4.744-4.744h4.744z" fill="#fff" data-name="Path 208" transform="translate(-661.145 -852.115)"/>
            <path id="Path_209" d="M684.059 856.859a4.744 4.744 0 0 1 9.489 0v11.861a4.744 4.744 0 1 1-9.489 0z" fill="#fff" data-name="Path 209" transform="translate(-672.198 -852.115)"/>
        </g>
        <g id="Group_205" data-name="Group 205" transform="translate(661.145 806.287)">
            <path id="Path_210" d="M688.8 815.776a4.744 4.744 0 1 1 4.744-4.745v4.745z" fill="#fff" data-name="Path 210" transform="translate(-672.198 -806.287)"/>
            <path id="Path_211" d="M677.751 829.2a4.744 4.744 0 0 1 0 9.489H665.89a4.744 4.744 0 1 1 0-9.489z" fill="#fff" data-name="Path 211" transform="translate(-661.145 -817.34)"/>
        </g>
        <g id="Group_206" data-name="Group 206" transform="translate(684.868 806.287)">
            <path id="Path_212" d="M729.887 833.945a4.744 4.744 0 1 1 4.745 4.745h-4.745z" fill="#fff" data-name="Path 212" transform="translate(-718.026 -817.34)"/>
            <path id="Path_213" d="M716.462 822.893a4.744 4.744 0 1 1-9.489 0v-11.862a4.744 4.744 0 0 1 9.489 0z" fill="#fff" data-name="Path 213" transform="translate(-706.973 -806.287)"/>
        </g>
        <g id="Group_207" data-name="Group 207" transform="translate(684.868 830.01)">
            <path id="Path_214" d="M711.718 875.029a4.744 4.744 0 1 1-4.745 4.744v-4.744z" fill="#fff" data-name="Path 214" transform="translate(-706.973 -863.168)"/>
            <path id="Path_215" d="M711.718 861.6a4.744 4.744 0 1 1 0-9.489h11.861a4.744 4.744 0 0 1 0 9.489z" fill="#fff" data-name="Path 215" transform="translate(-706.973 -852.115)"/>
        </g>
    </g>
</svg>
