<svg xmlns="http://www.w3.org/2000/svg" width="166.806" height="50.029" viewBox="0 0 166.806 50.029">
    <g id="Group_696" data-name="Group 696" transform="translate(-4.252 -1.277)">
        <g id="Group_692" data-name="Group 692" transform="translate(4.252 1.277)">
            <path id="Path_634" d="M29.267 1.277a25.015 25.015 0 1 0 25.015 25.014A25.015 25.015 0 0 0 29.267 1.277zm11.472 36.08a1.558 1.558 0 0 1-2.144.519c-5.874-3.59-13.268-4.4-21.975-2.412a1.559 1.559 0 1 1-.694-3.039c9.528-2.178 17.7-1.241 24.3 2.788a1.559 1.559 0 0 1 .513 2.144zm3.061-6.811a1.951 1.951 0 0 1-2.682.642c-6.722-4.132-16.973-5.329-24.926-2.915a1.95 1.95 0 1 1-1.134-3.732c9.085-2.757 20.38-1.422 28.1 3.323a1.95 1.95 0 0 1 .642 2.682zm.264-7.093C36 18.664 22.7 18.224 15 20.56a2.34 2.34 0 1 1-1.358-4.478c8.836-2.682 23.525-2.164 32.807 3.346a2.34 2.34 0 0 1-2.388 4.024z" fill="#1ed760" data-name="Path 634" transform="translate(-4.252 -1.277)"/>
        </g>
        <g id="Group_695" data-name="Group 695" transform="translate(61.829 12.781)">
            <g id="Group_693" data-name="Group 693">
                <path id="Path_635" d="M207.486 55.758c-4.319-1.03-5.088-1.753-5.088-3.271 0-1.435 1.351-2.4 3.36-2.4a9.819 9.819 0 0 1 5.9 2.243.282.282 0 0 0 .214.052.277.277 0 0 0 .187-.115l2.109-2.973a.283.283 0 0 0-.054-.385 12.759 12.759 0 0 0-8.295-2.874c-4.663 0-7.921 2.8-7.921 6.8 0 4.294 2.81 5.814 7.666 6.988 4.133.952 4.83 1.749 4.83 3.175 0 1.58-1.41 2.562-3.68 2.562a9.92 9.92 0 0 1-6.878-2.841.3.3 0 0 0-.208-.068.281.281 0 0 0-.194.1l-2.365 2.814a.281.281 0 0 0 .028.392 14.1 14.1 0 0 0 9.52 3.652c5.025 0 8.272-2.746 8.272-7 .004-3.585-2.141-5.572-7.403-6.851z" fill="#1ed760" data-name="Path 635" transform="translate(-197.006 -44.169)"/>
                <path id="Path_636" d="M271.776 64.326a6.776 6.776 0 0 0-5.438 2.616v-1.979a.283.283 0 0 0-.283-.283h-3.867a.283.283 0 0 0-.283.283v21.986a.283.283 0 0 0 .283.283h3.867a.283.283 0 0 0 .283-.283v-6.94a6.947 6.947 0 0 0 5.438 2.461c4.047 0 8.144-3.116 8.144-9.071s-4.096-9.073-8.144-9.073zm3.648 9.073c0 3.033-1.868 5.149-4.543 5.149-2.644 0-4.639-2.213-4.639-5.149s1.995-5.149 4.639-5.149 4.543 2.165 4.543 5.15z" fill="#1ed760" data-name="Path 636" transform="translate(-242.52 -56.997)"/>
                <path id="Path_637" d="M335.549 64.326a9.091 9.091 0 1 0 9.263 9.073 9.12 9.12 0 0 0-9.263-9.073zm0 14.254a4.919 4.919 0 0 1-4.862-5.181 4.8 4.8 0 0 1 4.8-5.118 4.934 4.934 0 0 1 4.894 5.183 4.815 4.815 0 0 1-4.832 5.116z" fill="#1ed760" data-name="Path 637" transform="translate(-287.647 -56.997)"/>
                <path id="Path_638" d="M400.219 54.63h-4.256v-4.351a.283.283 0 0 0-.282-.283h-3.867a.284.284 0 0 0-.284.283v4.351h-1.859a.283.283 0 0 0-.282.283v3.324a.282.282 0 0 0 .282.283h1.859v8.6c0 3.475 1.73 5.238 5.141 5.238a7.055 7.055 0 0 0 3.623-.9.282.282 0 0 0 .143-.245v-3.166a.284.284 0 0 0-.41-.254 4.874 4.874 0 0 1-2.27.548c-1.241 0-1.794-.563-1.794-1.826v-7.994h4.256a.283.283 0 0 0 .282-.283v-3.324a.283.283 0 0 0-.282-.284z" fill="#1ed760" data-name="Path 638" transform="translate(-331.923 -46.948)"/>
                <path id="Path_639" d="M460 49.914v-.534c0-1.572.6-2.273 1.955-2.273a6.525 6.525 0 0 1 2.179.4.283.283 0 0 0 .372-.269V43.98a.283.283 0 0 0-.2-.272 10.615 10.615 0 0 0-3.214-.462c-3.572 0-5.46 2.011-5.46 5.815v.818h-1.862a.284.284 0 0 0-.284.283V53.5a.284.284 0 0 0 .284.283h1.858v13.27a.283.283 0 0 0 .282.283h3.867a.284.284 0 0 0 .283-.283V53.787h3.611l5.529 13.262c-.628 1.393-1.245 1.671-2.088 1.671a4.46 4.46 0 0 1-2.133-.6.29.29 0 0 0-.225-.021.286.286 0 0 0-.167.153l-1.311 2.876a.281.281 0 0 0 .122.366 8.144 8.144 0 0 0 4.13 1.057c2.856 0 4.434-1.33 5.826-4.909l6.711-17.342a.282.282 0 0 0-.263-.386h-4.026a.284.284 0 0 0-.268.19l-4.124 11.78-4.517-11.784a.282.282 0 0 0-.264-.182z" fill="#1ed760" data-name="Path 639" transform="translate(-376.873 -42.215)"/>
                <rect id="Rectangle_205" width="4.434" height="17.439" fill="#1ed760" data-name="Rectangle 205" rx=".949" transform="translate(70.377 7.683)"/>
                <path id="Path_640" d="M433.581 39.791a2.773 2.773 0 1 0 2.774 2.773 2.774 2.774 0 0 0-2.774-2.773z" fill="#1ed760" data-name="Path 640" transform="translate(-360.968 -39.791)"/>
            </g>
            <g id="Group_694" data-name="Group 694" transform="translate(103.772 7.65)">
                <path id="Path_641" d="M547.129 70.858a2.729 2.729 0 1 1 2.736-2.737 2.711 2.711 0 0 1-2.736 2.737zm.014-5.187a2.458 2.458 0 1 0 2.435 2.45 2.434 2.434 0 0 0-2.434-2.45zm.6 2.73l.77 1.078h-.649l-.693-.988h-.6v.988h-.543v-2.858h1.274c.663 0 1.1.34 1.1.911a.852.852 0 0 1-.655.868zm-.459-1.289h-.708v.9h.708c.354 0 .565-.173.565-.452s-.208-.449-.561-.449z" fill="#1ed760" data-name="Path 641" transform="translate(-544.408 -65.4)"/>
            </g>
        </g>
    </g>
</svg>
