<svg xmlns="http://www.w3.org/2000/svg" width="22" height="21" viewBox="0 0 22 21">
    <g id="Group_1746" data-name="Group 1746" transform="translate(.076 -.055)">
        <ellipse id="Ellipse_19" cx="11" cy="10.5" fill="#51504f" data-name="Ellipse 19" rx="11" ry="10.5"
                 transform="translate(-.076 .055)"/>
        <g id="Logo_FIXED" data-name="Logo — FIXED" transform="translate(5.568 5.872)">
            <path id="Path_643"
                  d="M-1554.714 1446.466a6.538 6.538 0 0 0 6.581-6.581v-.3a4.711 4.711 0 0 0 1.155-1.2 4.7 4.7 0 0 1-1.331.365 2.328 2.328 0 0 0 1.019-1.281 4.6 4.6 0 0 1-1.47.559 2.309 2.309 0 0 0-1.687-.73 2.316 2.316 0 0 0-2.314 2.314 2.555 2.555 0 0 0 .059.528 6.569 6.569 0 0 1-4.767-2.418 2.311 2.311 0 0 0-.311 1.164 2.319 2.319 0 0 0 1.028 1.926 2.34 2.34 0 0 1-1.047-.289v.031a2.318 2.318 0 0 0 1.854 2.269 2.257 2.257 0 0 1-.609.081 2.281 2.281 0 0 1-.433-.041 2.313 2.313 0 0 0 2.161 1.606 4.639 4.639 0 0 1-2.873.992 4.445 4.445 0 0 1-.55-.031 6.578 6.578 0 0 0 3.541 1.033"
                  fill="#fff" data-name="Path 643" transform="translate(1558.255 -1437.301)"/>
        </g>
    </g>
</svg>
