<svg xmlns="http://www.w3.org/2000/svg" width="30" height="30" viewBox="0 0 30 30">
    <defs>
        <style>
            .cls-1{fill:#51504f}.cls-2{fill:#fff}
        </style>
    </defs>
    <g id="Group_697" data-name="Group 697" transform="translate(1602.745 -1383.371)">
        <circle id="Ellipse_19" cx="15" cy="15" r="15" class="cls-1" data-name="Ellipse 19" transform="translate(-1602.745 1383.371)"/>
        <g id="Logo_FIXED" data-name="Logo — FIXED" transform="translate(-1595.721 1391.886)">
            <path id="Path_643" d="M-1553.245 1450.271a9.252 9.252 0 0 0 9.312-9.312c0-.14 0-.281-.006-.421a6.667 6.667 0 0 0 1.634-1.7 6.638 6.638 0 0 1-1.883.517 3.293 3.293 0 0 0 1.443-1.813 6.5 6.5 0 0 1-2.081.791 3.267 3.267 0 0 0-2.387-1.034 3.277 3.277 0 0 0-3.274 3.274 3.622 3.622 0 0 0 .083.747 9.294 9.294 0 0 1-6.746-3.421 3.271 3.271 0 0 0-.441 1.647 3.282 3.282 0 0 0 1.455 2.725 3.31 3.31 0 0 1-1.481-.408v.045a3.28 3.28 0 0 0 2.623 3.21 3.188 3.188 0 0 1-.862.115 3.214 3.214 0 0 1-.613-.057 3.273 3.273 0 0 0 3.057 2.272 6.563 6.563 0 0 1-4.066 1.4 6.285 6.285 0 0 1-.779-.045 9.309 9.309 0 0 0 5.01 1.462" class="cls-2" data-name="Path 643" transform="translate(1558.255 -1437.301)"/>
        </g>
    </g>
</svg>
