<svg xmlns="http://www.w3.org/2000/svg" width="30" height="30"><g data-name="Group 697" transform="translate(1602.745 -1383.371)"><circle cx="15" cy="15" r="15" data-name="Ellipse 19" transform="translate(-1602.745 1383.371)" fill="#51504f"/><g data-name="Logo — FIXED"><path d="M-1590.711 1404.856a9.252 9.252 0 009.312-9.312c0-.14 0-.281-.006-.421a6.667 6.667 0 001.634-1.7 6.638 6.638 0 01-1.883.517 3.293 3.293 0 001.443-1.813 6.5 6.5 0 01-2.081.791 3.267 3.267 0 00-2.387-1.034 3.277 3.277 0 00-3.274 3.274 3.622 3.622 0 00.083.747 9.294 9.294 0 01-6.746-3.421 3.271 3.271 0 00-.441 1.647 3.282 3.282 0 001.455 2.725 3.31 3.31 0 01-1.481-.408v.045a3.28 3.28 0 002.623 3.21 3.188 3.188 0 01-.862.115 3.214 3.214 0 01-.613-.057 3.273 3.273 0 003.057 2.272 6.563 6.563 0 01-4.066 1.4 6.285 6.285 0 01-.779-.045 9.309 9.309 0 005.01 1.462" data-name="Path 643" fill="#fff"/></g></g></svg>
