<svg xmlns="http://www.w3.org/2000/svg" width="146.014" height="102.44" viewBox="0 0 146.014 102.44">
    <g id="Group_1202" data-name="Group 1202" transform="translate(1878.583 1130.356)">
        <g id="Group_1192" data-name="Group 1192" transform="translate(-1878.583 -1130.356)">
            <g id="Group_1185" data-name="Group 1185">
                <g id="Group_1179" data-name="Group 1179">
                    <path id="Path_1043" d="M-1674.1-996.56h-140.373a2.807 2.807 0 0 1-2.821-2.787v-96.865a2.807 2.807 0 0 1 2.821-2.787h140.373a2.807 2.807 0 0 1 2.821 2.787v96.865a2.807 2.807 0 0 1-2.821 2.787zm-140.373-101.046a1.4 1.4 0 0 0-1.41 1.394v96.865a1.4 1.4 0 0 0 1.41 1.394h140.373a1.4 1.4 0 0 0 1.41-1.394v-96.865a1.4 1.4 0 0 0-1.41-1.394z" fill="#017cee" data-name="Path 1043" transform="translate(1817.292 1099)"/>
                </g>
                <g id="Group_1180" data-name="Group 1180" transform="translate(1.017 12.79)">
                    <path id="Rectangle_454" d="M0 0h144.604v1.41H0z" fill="#017cee" data-name="Rectangle 454"/>
                </g>
                <g id="Group_1184" data-name="Group 1184" transform="translate(6.333 5.447)">
                    <g id="Group_1181" data-name="Group 1181">
                        <circle id="Ellipse_113" cx="1.675" cy="1.675" r="1.675" fill="#017cee" data-name="Ellipse 113"/>
                    </g>
                    <g id="Group_1182" data-name="Group 1182" transform="translate(10.72)">
                        <circle id="Ellipse_114" cx="1.675" cy="1.675" r="1.675" fill="#017cee" data-name="Ellipse 114"/>
                    </g>
                    <g id="Group_1183" data-name="Group 1183" transform="translate(5.36)">
                        <circle id="Ellipse_115" cx="1.675" cy="1.675" r="1.675" fill="#017cee" data-name="Ellipse 115"/>
                    </g>
                </g>
            </g>
            <g id="Group_1186" data-name="Group 1186" transform="translate(10.554 23.375)">
                <path id="Path_1044" d="M-1750.077-1030.4v9.139h-35.87v-9.139h35.87m.145-1.41h-36.159a1.266 1.266 0 0 0-1.266 1.266v9.427a1.266 1.266 0 0 0 1.266 1.266h36.159a1.266 1.266 0 0 0 1.266-1.266v-9.427a1.266 1.266 0 0 0-1.266-1.266z" fill="#017cee" data-name="Path 1044" transform="translate(1787.358 1031.811)"/>
            </g>
            <g id="Group_1187" data-name="Group 1187" transform="translate(10.554 39.34)">
                <path id="Path_1045" d="M-1728.973-984.51v9.139h-56.974v-9.139h56.974m.144-1.41h-57.263a1.266 1.266 0 0 0-1.266 1.266v9.427a1.266 1.266 0 0 0 1.266 1.266h57.263a1.266 1.266 0 0 0 1.266-1.266v-9.427a1.266 1.266 0 0 0-1.266-1.266z" fill="#017cee" data-name="Path 1045" transform="translate(1787.358 985.92)"/>
            </g>
            <g id="Group_1188" data-name="Group 1188" transform="translate(10.554 54.833)">
                <path id="Path_1046" d="M-1664.254-938.618v31.649h-121.694v-31.649h121.694m.144-1.41h-121.982a1.266 1.266 0 0 0-1.266 1.266v31.938a1.266 1.266 0 0 0 1.266 1.266h121.982a1.266 1.266 0 0 0 1.266-1.266v-31.938a1.266 1.266 0 0 0-1.266-1.266z" fill="#017cee" data-name="Path 1046" transform="translate(1787.358 940.028)"/>
            </g>
            <g id="Group_1189" data-name="Group 1189" transform="translate(75.273 39.34)">
                <path id="Path_1047" d="M-1545.407-984.51v9.139h-56.974v-9.139h56.974m.144-1.41h-57.263a1.266 1.266 0 0 0-1.266 1.266v9.427a1.266 1.266 0 0 0 1.266 1.266h57.263a1.266 1.266 0 0 0 1.266-1.266v-9.427a1.266 1.266 0 0 0-1.266-1.266z" fill="#017cee" data-name="Path 1047" transform="translate(1603.792 985.92)"/>
            </g>
            <g id="Group_1190" data-name="Group 1190" transform="translate(53.466 23.375)">
                <path id="Path_1048" d="M-1628.365-1030.4v9.139h-35.87v-9.139h35.87m.144-1.41h-36.159a1.266 1.266 0 0 0-1.266 1.266v9.427a1.266 1.266 0 0 0 1.266 1.266h36.159a1.266 1.266 0 0 0 1.266-1.266v-9.427a1.266 1.266 0 0 0-1.266-1.266z" fill="#017cee" data-name="Path 1048" transform="translate(1665.646 1031.811)"/>
            </g>
            <g id="Group_1191" data-name="Group 1191" transform="translate(96.377 23.375)">
                <path id="Path_1049" d="M-1506.654-1030.4v9.139h-35.871v-9.139h35.871m.144-1.41h-36.159a1.266 1.266 0 0 0-1.266 1.266v9.427a1.266 1.266 0 0 0 1.266 1.266h36.159a1.266 1.266 0 0 0 1.266-1.266v-9.427a1.266 1.266 0 0 0-1.266-1.266z" fill="#017cee" data-name="Path 1049" transform="translate(1543.935 1031.811)"/>
            </g>
        </g>
    </g>
</svg>
