<svg xmlns="http://www.w3.org/2000/svg" width="49.594" height="34.941" viewBox="0 0 49.594 34.941">
    <path id="Path_223" d="M1124.557 1230a6.232 6.232 0 0 0-4.385-4.413c-3.867-1.043-19.376-1.043-19.376-1.043s-15.508 0-19.376 1.043a6.232 6.232 0 0 0-4.385 4.413c-1.036 3.893-1.036 12.014-1.036 12.014s0 8.122 1.036 12.015a6.232 6.232 0 0 0 4.385 4.413c3.867 1.043 19.376 1.043 19.376 1.043s15.509 0 19.376-1.043a6.232 6.232 0 0 0 4.385-4.413c1.036-3.893 1.036-12.015 1.036-12.015s.001-8.123-1.036-12.014zm-28.833 19.388v-14.748l12.962 7.374z" fill="#fff" data-name="Path 223" transform="translate(-1076 -1224.542)"/>
</svg>
