<svg xmlns="http://www.w3.org/2000/svg" width="198.073" height="60" viewBox="0 0 198.073 60">
    <g id="Group_191" data-name="Group 191" transform="translate(549.893 -945.671)">
        <g id="Group_190" data-name="Group 190" transform="translate(-549.893 945.671)">
            <path id="Path_171" d="M-466.061 950.262c11.082-1.552 22.132-3.071 33.214-4.591-.032 9.752 0 19.5 0 29.256h-33.245c.032-8.2-.032-16.433.032-24.665" fill="#35a8e1" data-name="Path 171" transform="translate(492.626 -945.671)"/>
            <path id="Path_172" d="M27.848 957.669a3.712 3.712 0 0 1 4.971-.823c-1.2.317-2.565.253-3.673.855-.95 1.33-.443 3.1-.6 4.654 2.216.032 4.4 0 6.617.032.032-1.615.063-3.2.063-4.813l1.172.032v4.718c1.171.032 2.311.032 3.483.063v.887c-1.171 0-2.343 0-3.483.032.032 3.42 0 6.807 0 10.227.095.918-.222 2.153.633 2.786.792.633 1.9.475 2.85.665v.855c-1.773.032-4.274-.348-4.559-2.5-.222-4.021-.032-8.042-.063-12.063h-6.651c0 4.876.032 9.752-.032 14.628-.285-.1-.792-.285-1.077-.348-.222-4.718-.063-9.5-.063-14.216-1.077-.19-2.628.38-3.23-.855 1.045-.063 2.121-.127 3.166-.158.063-1.551-.158-3.2.475-4.654" fill="#35a8e1" data-name="Path 172" transform="translate(158.193 -952.888)"/>
            <path id="Path_173" d="M-307.661 956.671c.475.095 1.393.285 1.868.38 3.261 6.364 5.952 13.045 9.024 19.5 3.419-6.3 5.952-13.076 9.024-19.567.665 0 1.33-.032 1.995-.032v21.119l-1.425-.127c.032-6.491.095-12.95-.032-19.441-3.1 6.427-5.826 13.045-8.8 19.5h-1.3c-1.995-4.306-3.958-8.644-5.921-12.982a30.167 30.167 0 0 0-3.071-6.047c-.222 6.332-.063 12.665-.095 19.029-.317 0-.982.032-1.3.063.032-7.156 0-14.28.032-21.4" fill="#35a8e1" data-name="Path 173" transform="translate(384.653 -953.188)"/>
            <path id="Path_174" d="M-225.161 957.471c.285 0 .855.032 1.108.032v2.818h-1.14c0-.95.032-1.9.032-2.85" fill="#35a8e1" data-name="Path 174" transform="translate(328.329 -953.735)"/>
            <path id="Path_175" d="M-549.893 964.181c8.422-1.2 16.876-2.216 25.3-3.609.063 8.2 0 16.369.032 24.57-8.422.063-16.844-.095-25.266.095-.063-7.029 0-14.058-.063-21.055" fill="#35a8e1" data-name="Path 175" transform="translate(549.893 -955.853)"/>
            <path id="Path_176" d="M-209.483 976.323c3.515-3.673 10.987-2.565 12.317 2.691a40.82 40.82 0 0 1-1.077.38c-.95-5.066-8.549-5.7-11.082-1.646a8.815 8.815 0 0 0 .222 9.5c2.47 3.166 8.612 2.913 10.2-1.045.38-.792.7-1.836 1.836-1.615a7.323 7.323 0 0 1-9.309 5.446c-5.763-1.362-7.029-9.752-3.1-13.71" fill="#35a8e1" data-name="Path 176" transform="translate(319.18 -965.107)"/>
            <path id="Path_177" d="M-225.138 975.471l1.14.032v15.324l-1.108.063a842.514 842.514 0 0 1-.032-15.419" fill="#35a8e1" data-name="Path 177" transform="translate(328.306 -965.995)"/>
            <path id="Path_178" d="M-156.162 975.571h1.172c.032.95.032 1.868.063 2.818 1.71-1.488 3.736-3.166 6.174-2.755.127.158.412.475.538.665-2.818.127-5.952 1.615-6.586 4.623-.412 3.419.032 6.9-.253 10.322-.285-.158-.792-.475-1.045-.6-.19-5.034-.032-10.037-.063-15.071" fill="#35a8e1" data-name="Path 178" transform="translate(281.261 -966.063)"/>
            <path id="Path_179" d="M-125.224 975.5c-5.6 1.8-5.952 10.955-.76 13.488a6.44 6.44 0 0 0 7-1.108 8.242 8.242 0 0 0 .317-10.638 6.328 6.328 0 0 0-6.554-1.741m-.633-.76a7.726 7.726 0 0 1 7.916 1.71c3.166 3.388 2.945 9.435-.633 12.412-3.325 2.691-8.96 1.836-11.05-1.995-2.533-4.053-1.045-10.544 3.768-12.127" fill="#35a8e1" data-name="Path 179" transform="translate(263.981 -965.199)"/>
            <path id="Path_180" d="M-72.47 975.258a8.918 8.918 0 0 1 8.422.063c1.425.76 1.71 2.5 2.121 3.894-1.836.032-1.425-2.375-2.786-3.135a7.319 7.319 0 0 0-7-.095 2.572 2.572 0 0 0 .063 4.464c2.691 1.393 6.016 1.013 8.612 2.628 1.52.95 1.773 3.071 1.172 4.623-.792 1.741-2.818 2.311-4.528 2.6-2.691.412-5.889-.19-7.5-2.565-.6-.95-1.33-2.406.032-3.008.507 1.235.792 2.723 1.931 3.578 2.09 1.583 5.034 1.425 7.377.6a2.89 2.89 0 0 0 .7-5c-2.786-1.551-6.364-1.013-8.992-2.881a3.513 3.513 0 0 1 .38-5.763" fill="#35a8e1" data-name="Path 180" transform="translate(225.626 -965.151)"/>
            <path id="Path_181" d="M-19.512 975.265c-5.034.38-6.9 6.807-4.844 10.8 1.425 3.451 6.269 4.464 9.214 2.343 3.1-2.375 3.515-7.219 1.52-10.448a5.959 5.959 0 0 0-5.889-2.691m-2.343-.348a7.675 7.675 0 0 1 8.739 1.868 9.064 9.064 0 0 1-.317 11.462 7.6 7.6 0 0 1-10.259.348c-4.116-3.578-3.356-11.493 1.836-13.678" fill="#35a8e1" data-name="Path 181" transform="translate(192.731 -965.189)"/>
            <path id="Path_182" d="M-549.738 1041.971h25.266c.032 8.137 0 16.274.032 24.443-8.454-.76-16.844-2.343-25.266-3.356a1577.65 1577.65 0 0 1-.032-21.087" fill="#35a8e1" data-name="Path 182" transform="translate(549.801 -1011.29)"/>
            <path id="Path_183" d="M-466.093 1066.6c.063-8.232-.063-16.5.063-24.728 11.05.063 22.132-.032 33.182.032v29.319c-11.113-1.425-22.2-3.04-33.245-4.623" fill="#35a8e1" data-name="Path 183" transform="translate(492.626 -1011.222)"/>
            <path id="Path_184" d="M-307.8 1061.414h7.947c-1.266-3.325-2.47-6.681-3.894-9.91-1.52 3.2-2.628 6.617-4.053 9.91m2.438-12.443c1.14 0 2.248.032 3.388.063 2.913 7.061 5.857 14.121 8.96 21.119-1.108 0-2.216-.032-3.325-.032-.823-2.121-1.646-4.211-2.47-6.333-3.325.032-6.617 0-9.942.032-.855 2.121-1.71 4.211-2.565 6.332h-2.976c2.976-7.061 5.921-14.153 8.929-21.182" fill="#35a8e1" data-name="Path 184" transform="translate(389.155 -1016.074)"/>
            <path id="Path_185" d="M-133.843 1069.182c1.551-1.931 3.546-3.578 6.174-3.514 0 .855 0 1.71.032 2.565-2.28.095-4.939.982-5.6 3.451-.76 3.23-.222 6.554-.38 9.847h-2.723a1238.27 1238.27 0 0 1 0-15.419h2.533v3.071z" fill="#35a8e1" data-name="Path 185" transform="translate(267.735 -1027.483)"/>
            <path id="Path_186" d="M-104.17 1072.733c3.388.063 6.744.063 10.132 0-.538-2.533-2.66-4.971-5.509-4.5-2.565-.127-4.116 2.28-4.623 4.5m-.728-3.926c2.66-3.356 8.359-3.7 11.272-.475a10.054 10.054 0 0 1 2.153 6.586c-4.243.032-8.454-.032-12.7.032.317 1.267.412 2.723 1.456 3.641 2.47 2.47 7.346 1.9 8.612-1.551.633.032 1.9.032 2.5.063-1.488 5.351-8.929 6.586-12.76 3.1a8.753 8.753 0 0 1-.538-11.4" fill="#35a8e1" data-name="Path 186" transform="translate(247.545 -1027.773)"/>
            <path id="Path_187" d="M-245.15 1067.1c4.433-.032 8.834-.063 13.266.032-.1 1.71-1.425 2.85-2.47 4.084-2.628 3.008-5.288 6.016-7.884 9.055 3.514.665 7.092-.38 10.607.38 0 .443.032 1.362.032 1.836h-13.995v-1.931c3.261-3.736 6.681-7.314 9.784-11.177-3.008-.253-6.047-.032-9.055-.222-.095-.475-.222-1.52-.285-2.058" fill="#35a8e1" data-name="Path 187" transform="translate(342.271 -1028.443)"/>
            <path id="Path_188" d="M-193.7 1067.071c.887 0 1.8 0 2.723.032.063 3.8-.19 7.631.1 11.43 1.425 4.084 8.359 2.185 8.359-1.9.095-3.166 0-6.364.032-9.53h2.628v15.42h-2.406c-.063-.507-.158-1.552-.222-2.09a7.509 7.509 0 0 1-8.707 1.741c-1.836-.823-2.438-2.976-2.438-4.813-.127-3.451-.032-6.871-.063-10.29" fill="#35a8e1" data-name="Path 188" transform="translate(306.87 -1028.443)"/>
        </g>
    </g>
</svg>
