<svg width="175" height="175" viewBox="0 0 175 175" fill="none" xmlns="http://www.w3.org/2000/svg">
<g clip-path="url(#clip0)">
<path d="M4.18587 172.44L86.3959 88.1685C86.9109 87.6406 87.0096 86.8244 86.5801 86.2249C81.5792 79.2442 72.3564 78.0343 68.9375 73.3445C58.8101 59.4522 56.2405 51.5891 51.8887 52.0768C51.5847 52.1109 51.3137 52.2745 51.1001 52.4934L21.4015 82.9367C4.31645 100.45 1.86636 139.01 1.41703 171.298C1.39673 172.757 3.1669 173.484 4.18587 172.44Z" fill="#017CEE"/>
<path d="M172.44 170.357L88.1685 88.1466C87.6406 87.6316 86.8244 87.5328 86.2249 87.9623C79.2443 92.9633 78.0344 102.186 73.3445 105.605C59.4522 115.732 51.5891 118.302 52.0768 122.654C52.1109 122.958 52.2745 123.229 52.4935 123.442L82.9367 153.141C100.45 170.226 139.01 172.676 171.298 173.125C172.757 173.146 173.484 171.376 172.44 170.357Z" fill="#00AD46"/>
<path fill-rule="evenodd" clip-rule="evenodd" d="M82.9363 153.141C73.3696 143.809 68.9312 125.346 87.2715 87.2725C57.4647 100.593 47.0194 118.103 52.1578 123.116L82.9363 153.141Z" fill="#04D659"/>
<path d="M170.355 2.10462L88.1451 86.376C87.6301 86.9039 87.5314 87.72 87.9609 88.3195C92.9618 95.3002 102.185 96.5101 105.603 101.2C115.731 115.092 118.301 122.955 122.652 122.468C122.956 122.434 123.227 122.27 123.441 122.051L153.139 91.6077C170.225 74.0942 172.675 35.5346 173.124 3.24627C173.144 1.78719 171.374 1.0601 170.355 2.10462Z" fill="#00C7D4"/>
<path fill-rule="evenodd" clip-rule="evenodd" d="M153.14 91.6077C143.807 101.174 125.344 105.613 87.2705 87.2725C100.591 117.079 118.101 127.525 123.114 122.386L153.14 91.6077Z" fill="#11E1EE"/>
<path d="M2.10315 4.18733L86.3745 86.3973C86.9024 86.9123 87.7185 87.0111 88.3181 86.5816C95.2987 81.5807 96.5086 72.3579 101.198 68.939C115.091 58.8116 122.954 56.242 122.466 51.8902C122.432 51.5862 122.268 51.3152 122.05 51.1016L91.6063 21.403C74.0928 4.31792 35.5331 1.86783 3.2448 1.4185C1.78572 1.39819 1.05863 3.16836 2.10315 4.18733Z" fill="#E43921"/>
<path fill-rule="evenodd" clip-rule="evenodd" d="M91.6057 21.4025C101.172 30.7352 105.611 49.1977 87.2705 87.2714C117.077 73.9511 127.523 56.4408 122.384 51.4281L91.6057 21.4025Z" fill="#FF7557"/>
<path fill-rule="evenodd" clip-rule="evenodd" d="M21.4025 82.9368C30.7352 73.3701 49.1977 68.9317 87.2714 87.272C73.951 57.4652 56.4408 47.0199 51.4281 52.1583L21.4025 82.9368Z" fill="#0CB6FF"/>
<circle cx="87.2838" cy="87.2606" r="3.67606" transform="rotate(-0.709386 87.2838 87.2606)" fill="#4A4848"/>
</g>
<defs>
<clipPath id="clip0">
<rect width="175" height="175" fill="white"/>
</clipPath>
</defs>
</svg>
