<svg xmlns="http://www.w3.org/2000/svg" width="80" height="80" viewBox="0 0 80 80">
    <g id="Group_1464" data-name="Group 1464" transform="translate(-215 -3128)">
        <g id="Ellipse_125" fill="none" stroke="#017cee" data-name="Ellipse 125" transform="translate(215 3128)">
            <circle cx="40" cy="40" r="40"/>
            <circle cx="40" cy="40" r="39.5"/>
        </g>
        <g id="Group_1463" data-name="Group 1463" transform="translate(188.892 3112)">
            <path id="Path_1243" d="M60.472 128.944a8.9 8.9 0 0 0 11.631.081 16.274 16.274 0 0 1 4.2 5.9 24.9 24.9 0 0 1 1.976 8.941H54.2c.244-6.236 2.632-11.9 6.275-14.923m.022-1.243a.581.581 0 0 0-.356.122c-4 3.088-6.787 9.116-7.03 16.133a.966.966 0 0 0 .967 1H78.4a.966.966 0 0 0 .967-1c-.24-6.953-2.977-12.936-6.919-16.049a.582.582 0 0 0-.76.033 7.812 7.812 0 0 1-10.79-.076.582.582 0 0 0-.405-.164z" fill="#017cee" data-name="Path 1243" transform="translate(0 -74.952)"/>
            <path id="Path_1244" d="M110.63 42.084a5.2 5.2 0 1 1-5.2 5.2 5.205 5.205 0 0 1 5.2-5.2m0-1.084a6.282 6.282 0 1 0 6.283 6.283A6.283 6.283 0 0 0 110.63 41z" fill="#017cee" data-name="Path 1244" transform="translate(-44.295)"/>
        </g>
    </g>
</svg>
