<?xml version="1.0" encoding="UTF-8" standalone="no"?>
<!DOCTYPE svg PUBLIC "-//W3C//DTD SVG 1.1//EN"
 "http://www.w3.org/Graphics/SVG/1.1/DTD/svg11.dtd">
<!-- Generated by graphviz version 2.43.0 (0)
 -->
<!-- Title: A Pages: 1 -->
<svg width="509pt" height="215pt"
 viewBox="0.00 0.00 509.00 215.00" xmlns="http://www.w3.org/2000/svg" xmlns:xlink="http://www.w3.org/1999/xlink">
<g id="graph0" class="graph" transform="scale(1 1) rotate(0) translate(4 211)">
<title>A</title>
<polygon fill="white" stroke="transparent" points="-4,4 -4,-211 505,-211 505,4 -4,4"/>
<g id="clust1" class="cluster">
<title>cluster</title>
<polygon fill="none" stroke="black" points="8,-8 8,-199 493,-199 493,-8 8,-8"/>
<text text-anchor="middle" x="250.5" y="-183.8" font-family="Times,serif" font-size="14.00">Cluster</text>
</g>
<g id="clust4" class="cluster">
<title>cluster_queue</title>
<polygon fill="none" stroke="black" points="211,-16 211,-91 485,-91 485,-16 211,-16"/>
<text text-anchor="middle" x="348" y="-75.8" font-family="Times,serif" font-size="14.00">Celery</text>
</g>
<!-- dag -->
<g id="node1" class="node">
<title>dag</title>
<path fill="none" stroke="black" d="M188.5,-60C188.5,-60 129.5,-60 129.5,-60 123.5,-60 117.5,-54 117.5,-48 117.5,-48 117.5,-36 117.5,-36 117.5,-30 123.5,-24 129.5,-24 129.5,-24 188.5,-24 188.5,-24 194.5,-24 200.5,-30 200.5,-36 200.5,-36 200.5,-48 200.5,-48 200.5,-54 194.5,-60 188.5,-60"/>
<text text-anchor="middle" x="159" y="-38.3" font-family="Times,serif" font-size="14.00">DAG files</text>
</g>
<!-- database -->
<g id="node2" class="node">
<title>database</title>
<path fill="none" stroke="black" d="M87.5,-60C87.5,-60 28.5,-60 28.5,-60 22.5,-60 16.5,-54 16.5,-48 16.5,-48 16.5,-36 16.5,-36 16.5,-30 22.5,-24 28.5,-24 28.5,-24 87.5,-24 87.5,-24 93.5,-24 99.5,-30 99.5,-36 99.5,-36 99.5,-48 99.5,-48 99.5,-54 93.5,-60 87.5,-60"/>
<text text-anchor="middle" x="58" y="-38.3" font-family="Times,serif" font-size="14.00">Database</text>
</g>
<!-- workers -->
<g id="node3" class="node">
<title>workers</title>
<path fill="none" stroke="black" d="M216,-168C216,-168 164,-168 164,-168 158,-168 152,-162 152,-156 152,-156 152,-144 152,-144 152,-138 158,-132 164,-132 164,-132 216,-132 216,-132 222,-132 228,-138 228,-144 228,-144 228,-156 228,-156 228,-162 222,-168 216,-168"/>
<text text-anchor="middle" x="190" y="-146.3" font-family="Times,serif" font-size="14.00">Workers</text>
</g>
<!-- workers&#45;&gt;dag -->
<g id="edge4" class="edge">
<title>workers&#45;&gt;dag</title>
<path fill="none" stroke="black" d="M170.42,-131.83C165.79,-126.62 161.48,-120.53 159,-114 153.79,-100.27 153.43,-83.94 154.54,-70.4"/>
<polygon fill="black" stroke="black" points="158.04,-70.58 155.67,-60.25 151.08,-69.8 158.04,-70.58"/>
<text text-anchor="middle" x="164" y="-102.8" font-family="Times,serif" font-size="14.00">4</text>
</g>
<!-- workers&#45;&gt;database -->
<g id="edge5" class="edge">
<title>workers&#45;&gt;database</title>
<path fill="none" stroke="black" d="M166.06,-131.92C158.09,-126.23 149.16,-119.85 141,-114 126.76,-103.8 122.52,-102.14 109,-91 99.95,-83.54 90.48,-74.89 82.19,-67"/>
<polygon fill="black" stroke="black" points="84.58,-64.45 74.95,-60.03 79.72,-69.49 84.58,-64.45"/>
<text text-anchor="middle" x="146" y="-102.8" font-family="Times,serif" font-size="14.00">5</text>
</g>
<!-- queue_broker -->
<g id="node6" class="node">
<title>queue_broker</title>
<path fill="none" stroke="black" d="M465,-60C465,-60 375,-60 375,-60 369,-60 363,-54 363,-48 363,-48 363,-36 363,-36 363,-30 369,-24 375,-24 375,-24 465,-24 465,-24 471,-24 477,-30 477,-36 477,-36 477,-48 477,-48 477,-54 471,-60 465,-60"/>
<text text-anchor="middle" x="420" y="-38.3" font-family="Times,serif" font-size="14.00">Queue broker</text>
</g>
<!-- workers&#45;&gt;queue_broker -->
<g id="edge7" class="edge">
<title>workers&#45;&gt;queue_broker</title>
<path fill="none" stroke="black" d="M197.08,-131.97C202.81,-120.53 212.06,-106.25 225,-99 250.05,-84.95 326.97,-100.72 354,-91 368.7,-85.71 382.98,-76.08 394.47,-66.82"/>
<polygon fill="black" stroke="black" points="396.92,-69.33 402.31,-60.21 392.41,-63.98 396.92,-69.33"/>
<text text-anchor="middle" x="230" y="-102.8" font-family="Times,serif" font-size="14.00">7</text>
</g>
<!-- queue_result_backend -->
<g id="node7" class="node">
<title>queue_result_backend</title>
<path fill="none" stroke="black" d="M333,-60C333,-60 231,-60 231,-60 225,-60 219,-54 219,-48 219,-48 219,-36 219,-36 219,-30 225,-24 231,-24 231,-24 333,-24 333,-24 339,-24 345,-30 345,-36 345,-36 345,-48 345,-48 345,-54 339,-60 333,-60"/>
<text text-anchor="middle" x="282" y="-38.3" font-family="Times,serif" font-size="14.00">Result backend</text>
</g>
<!-- workers&#45;&gt;queue_result_backend -->
<g id="edge6" class="edge">
<title>workers&#45;&gt;queue_result_backend</title>
<path fill="none" stroke="black" d="M186.15,-131.66C184.85,-121.22 185.17,-108.21 192,-99 198.45,-90.31 205.39,-95.98 215,-91 228.16,-84.18 241.64,-75.02 253.03,-66.53"/>
<polygon fill="black" stroke="black" points="255.47,-69.07 261.29,-60.22 251.22,-63.51 255.47,-69.07"/>
<text text-anchor="middle" x="197" y="-102.8" font-family="Times,serif" font-size="14.00">6</text>
</g>
<!-- scheduler -->
<g id="node4" class="node">
<title>scheduler</title>
<path fill="none" stroke="black" d="M338.5,-168C338.5,-168 273.5,-168 273.5,-168 267.5,-168 261.5,-162 261.5,-156 261.5,-156 261.5,-144 261.5,-144 261.5,-138 267.5,-132 273.5,-132 273.5,-132 338.5,-132 338.5,-132 344.5,-132 350.5,-138 350.5,-144 350.5,-144 350.5,-156 350.5,-156 350.5,-162 344.5,-168 338.5,-168"/>
<text text-anchor="middle" x="306" y="-146.3" font-family="Times,serif" font-size="14.00">Scheduler</text>
</g>
<!-- scheduler&#45;&gt;dag -->
<g id="edge8" class="edge">
<title>scheduler&#45;&gt;dag</title>
<path fill="none" stroke="black" d="M297.52,-131.74C291.04,-120.49 281.01,-106.55 268,-99 244.35,-85.28 231.53,-103.09 207,-91 195.99,-85.58 186,-76.62 178.01,-67.91"/>
<polygon fill="black" stroke="black" points="180.45,-65.38 171.28,-60.08 175.15,-69.94 180.45,-65.38"/>
<text text-anchor="middle" x="289" y="-102.8" font-family="Times,serif" font-size="14.00">8</text>
</g>
<!-- scheduler&#45;&gt;database -->
<g id="edge9" class="edge">
<title>scheduler&#45;&gt;database</title>
<path fill="none" stroke="black" d="M281.82,-131.74C261.78,-117.48 236.37,-99.48 235,-99 208.54,-89.68 134.74,-102.16 109,-91 97.27,-85.91 86.57,-76.9 78.03,-68.05"/>
<polygon fill="black" stroke="black" points="80.42,-65.48 71.11,-60.42 75.23,-70.18 80.42,-65.48"/>
<text text-anchor="middle" x="260" y="-102.8" font-family="Times,serif" font-size="14.00">9</text>
</g>
<!-- scheduler&#45;&gt;queue_broker -->
<g id="edge11" class="edge">
<title>scheduler&#45;&gt;queue_broker</title>
<path fill="none" stroke="black" d="M324.32,-131.97C343.15,-114.46 372.66,-87.02 393.92,-67.25"/>
<polygon fill="black" stroke="black" points="396.41,-69.71 401.35,-60.34 391.64,-64.59 396.41,-69.71"/>
<text text-anchor="middle" x="368.5" y="-102.8" font-family="Times,serif" font-size="14.00">11</text>
</g>
<!-- scheduler&#45;&gt;queue_result_backend -->
<g id="edge10" class="edge">
<title>scheduler&#45;&gt;queue_result_backend</title>
<path fill="none" stroke="black" d="M305.24,-131.72C304.58,-122.02 303.33,-109.74 301,-99 298.91,-89.38 295.73,-79.1 292.55,-70.02"/>
<polygon fill="black" stroke="black" points="295.75,-68.56 289.03,-60.37 289.17,-70.96 295.75,-68.56"/>
<text text-anchor="middle" x="312.5" y="-102.8" font-family="Times,serif" font-size="14.00">10</text>
</g>
<!-- web -->
<g id="node5" class="node">
<title>web</title>
<path fill="none" stroke="black" d="M104,-168C104,-168 30,-168 30,-168 24,-168 18,-162 18,-156 18,-156 18,-144 18,-144 18,-138 24,-132 30,-132 30,-132 104,-132 104,-132 110,-132 116,-138 116,-144 116,-144 116,-156 116,-156 116,-162 110,-168 104,-168"/>
<text text-anchor="middle" x="67" y="-146.3" font-family="Times,serif" font-size="14.00">Web server</text>
</g>
<!-- web&#45;&gt;dag -->
<g id="edge2" class="edge">
<title>web&#45;&gt;dag</title>
<path fill="none" stroke="black" d="M72.91,-131.55C77.17,-121.07 83.8,-108.06 93,-99 98.67,-93.42 102.5,-95.58 109,-91 118.64,-84.2 128.22,-75.58 136.38,-67.52"/>
<polygon fill="black" stroke="black" points="138.92,-69.93 143.44,-60.34 133.93,-65.02 138.92,-69.93"/>
<text text-anchor="middle" x="98" y="-102.8" font-family="Times,serif" font-size="14.00">2</text>
</g>
<!-- web&#45;&gt;database -->
<g id="edge3" class="edge">
<title>web&#45;&gt;database</title>
<path fill="none" stroke="black" d="M62.93,-131.64C61.77,-126.04 60.66,-119.79 60,-114 58.38,-99.74 57.82,-83.76 57.69,-70.59"/>
<polygon fill="black" stroke="black" points="61.19,-70.27 57.67,-60.27 54.19,-70.28 61.19,-70.27"/>
<text text-anchor="middle" x="65" y="-102.8" font-family="Times,serif" font-size="14.00">3</text>
</g>
<!-- web&#45;&gt;workers -->
<g id="edge1" class="edge">
<title>web&#45;&gt;workers</title>
<path fill="none" stroke="black" d="M116.32,-150C124.59,-150 133.17,-150 141.42,-150"/>
<polygon fill="black" stroke="black" points="141.65,-153.5 151.65,-150 141.65,-146.5 141.65,-153.5"/>
<text text-anchor="middle" x="134" y="-156.8" font-family="Times,serif" font-size="14.00">1</text>
</g>
</g>
</svg>
