<svg height="64" viewBox="0 0 300 300" width="64" xmlns="http://www.w3.org/2000/svg" xmlns:xlink="http://www.w3.org/1999/xlink"><linearGradient id="a" x1="20.007264%" x2="82.190417%" y1="-5.530891%" y2="89.303395%"><stop offset="0" stop-color="#9478d2"/><stop offset="1" stop-color="#59418d"/></linearGradient><path d="m146.086647.08154636c-40.325179 1.30574852-77.7257628 18.23416894-105.3166216 47.67039164-56.9556025 60.766133-53.8548273 156.539817 6.9092923 213.496426 21.3138025 19.975838 46.9435216 32.533978 73.6867013 37.837511l8.015705-20.042283c-24.385382-4.074298-47.8687206-15.109232-67.2203767-33.246753-52.24302829-48.971107-54.90888956-131.314809-5.9397966-183.5598512 23.7229437-25.3085674 55.8803983-39.8671096 90.5506893-40.9886238 1.437632-.047317 2.874258-.0684586 4.307863-.0684586 26.150206 0 51.20004 7.7569717 72.534984 22.2218866l8.027787-20.0744991c-23.96557-15.20688617-51.686299-23.3272929-80.548677-23.3272929-1.666163 0-3.33434.02718212-5.00755.08154636zm15.288432 76.63747104h-20.337259-.681567l-.2537.6332427-53.5145471 133.7853619-.5516964 1.381254h1.4869627 21.5977048.688614l.248666-.642303 13.12997-33.760193h57.705628l13.295077 33.765227.25068.637269h.6866 22.360817 1.486963l-.552703-1.381254-34.554515-86.386791-.252693-.632236h-.682574-21.619853-1.471861l.533575 1.371187 12.256116 31.501057h-41.012786l30.697675-78.8996279.533575-1.3721937z" fill="url(#a)" fill-rule="evenodd" transform="translate(17.25)"/></svg>
